<svg width="333" height="290" viewBox="0 0 333 290" fill="none" xmlns="http://www.w3.org/2000/svg">
<path opacity="0.9" fill-rule="evenodd" clip-rule="evenodd" d="M2.28478 125.137C12.1284 86.5778 63.5549 82.3419 95.0511 59.6425C122.419 39.9188 141.983 5.578 174.545 0.988858C207.711 -3.68543 240.448 13.1708 265.471 35.6245C288.443 56.2383 294.621 88.966 305.691 118.67C316.871 148.671 338.367 177.922 330.292 209.567C322.215 241.225 293.515 263.845 265.13 277.634C240.698 289.503 213.819 277.497 187.2 279.079C161.362 280.614 135.776 296.014 111.73 286.751C85.2518 276.55 68.5962 251.176 52.2988 227.11C30.7131 195.235 -7.56285 163.711 2.28478 125.137Z" fill="#96A9A3"/>
</svg>
