<svg width="58" height="58" viewBox="0 0 58 58" fill="none" xmlns="http://www.w3.org/2000/svg">
<g clip-path="url(#clip0_147_16923)">
<path d="M43.924 28.4063C44.2835 28.9094 44.9398 28.4958 44.6433 27.9515C44.6433 27.9515 43.4712 25.7868 45.7097 24.1935L55.0771 18.2977C55.2004 18.2214 55.3067 18.1205 55.3893 18.0013C55.4719 17.8821 55.529 17.7471 55.5571 17.6049C55.5852 17.4626 55.5836 17.3161 55.5525 17.1744C55.5214 17.0328 55.4614 16.8991 55.3763 16.7817L54.5813 15.663C54.4984 15.5443 54.392 15.4439 54.2686 15.3682C54.1452 15.2925 54.0075 15.2431 53.8642 15.223C53.7208 15.2029 53.5748 15.2127 53.4354 15.2516C53.296 15.2905 53.1661 15.3578 53.0538 15.4492L44.4098 22.3603C42.1725 23.9503 40.512 22.1354 40.512 22.1354C40.0949 21.6791 39.4441 22.0984 39.7991 22.6036L43.924 28.4063Z" fill="#3C8563"/>
<path d="M18.0693 47.6832L44.9406 29.003L39.518 21.3715L13.0799 40.6628C13.0799 40.6628 13.7509 45.7 18.0693 47.6832Z" fill="#1E4231"/>
<path d="M43.1197 27.0605L29.0194 34.9756C28.6803 35.1656 28.3501 34.7064 28.6425 34.4478L40.751 23.7326C40.7852 23.7026 40.8253 23.68 40.8687 23.6663C40.9121 23.6527 40.9579 23.6482 41.0031 23.6533C41.0483 23.6583 41.092 23.6728 41.1314 23.6957C41.1707 23.7186 41.2048 23.7495 41.2315 23.7863L43.2201 26.5852C43.3385 26.7462 43.2882 26.9633 43.1197 27.0605Z" fill="#3C8563"/>
<path d="M55.0794 18.3022C55.2028 18.2259 55.3091 18.125 55.3916 18.0058C55.4742 17.8866 55.5313 17.7517 55.5594 17.6094C55.5875 17.4671 55.5859 17.3206 55.5548 17.1789C55.5237 17.0373 55.4637 16.9036 55.3786 16.7862L54.5836 15.6675C54.5008 15.5488 54.3943 15.4484 54.2709 15.3727C54.1475 15.297 54.0099 15.2476 53.8665 15.2275C53.7231 15.2075 53.5772 15.2172 53.4377 15.2561C53.2983 15.2951 53.1684 15.3623 53.0561 15.4538L52.2254 16.1191L54.1792 18.8685L55.0794 18.3022Z" fill="#1E4231"/>
<path d="M53.1114 19.5398L50.0251 17.8787L49.0704 18.642L52.019 20.2285L53.1114 19.5398ZM50.6636 21.0818L47.8881 19.586L46.9334 20.3493L49.5712 21.7705L50.6636 21.0818ZM48.2158 22.6237L45.7499 21.2967L44.7952 22.06L47.1201 23.3113L48.2158 22.6237Z" fill="#0E1F17"/>
<path d="M5.69194 43.3197C8.31991 44.2454 11.2007 42.8654 12.1264 40.2374C13.052 37.6094 11.672 34.7286 9.04402 33.803C6.41604 32.8773 3.53525 34.2574 2.6096 36.8853C1.68395 39.5133 3.06396 42.3941 5.69194 43.3197Z" fill="#1E4231"/>
<g filter="url(#filter0_f_147_16923)">
<path d="M5.40756 37.9568C6.1053 38.2026 6.87016 37.8362 7.11593 37.1385C7.36169 36.4407 6.99529 35.6759 6.29755 35.4301C5.59981 35.1843 4.83495 35.5507 4.58918 36.2485C4.34342 36.9462 4.70982 37.7111 5.40756 37.9568Z" fill="#3C8563"/>
</g>
<path d="M2.66502 40.3789C4.69921 40.4133 9.16985 40.102 12.1865 37.0719C12.0832 36.741 11.9484 36.4252 11.7822 36.1244C8.91348 39.2848 4.17033 39.4704 2.39881 39.4204C2.4544 39.7493 2.54352 40.0677 2.66502 40.3789Z" fill="white"/>
<path d="M3.02883 41.1331C3.24396 41.4959 3.50959 41.8317 3.81244 42.1359C5.86694 42.2185 9.55873 41.9385 12.3487 39.3616C12.4244 38.8925 12.4323 38.4257 12.3767 37.9699C9.37471 41.445 4.66041 41.3052 3.02883 41.1331Z" fill="white"/>
</g>
<defs>
<filter id="filter0_f_147_16923" x="2.5127" y="33.3538" width="6.67969" height="6.67944" filterUnits="userSpaceOnUse" color-interpolation-filters="sRGB">
<feFlood flood-opacity="0" result="BackgroundImageFix"/>
<feBlend mode="normal" in="SourceGraphic" in2="BackgroundImageFix" result="shape"/>
<feGaussianBlur stdDeviation="1" result="effect1_foregroundBlur_147_16923"/>
</filter>
<clipPath id="clip0_147_16923">
<rect width="45" height="45" fill="white" transform="translate(14.9492) rotate(19.4038)"/>
</clipPath>
</defs>
</svg>
