<svg width="39" height="30" viewBox="0 0 39 30" fill="none" xmlns="http://www.w3.org/2000/svg">
<circle cx="20.4962" cy="14.5836" r="14.196" stroke="#1E4231" stroke-width="0.775207"/>
<path d="M28.0983 8.33742C25.877 5.58287 25.1873 4.88921 23.9438 4.03302V1.35615C25.1379 1.19409 25.5155 1.40862 26.2566 1.72021C29.251 2.79241 30.4111 4.14009 32.3599 6.83838C32.5884 7.77116 32.6839 8.29332 32.5526 9.21544C31.2318 8.51108 30.197 8.33742 28.0983 8.33742Z" fill="#1E4231"/>
<path d="M23.1943 4.11868C20.745 4.74707 19.8633 5.2232 18.119 6.34583C15.4421 4.91103 13.1303 5.57462 12.8509 5.18942C12.946 4.079 13.3006 3.47623 13.4505 2.34124C15.0477 1.29071 15.9067 1.1579 17.5193 0.799363C19.6492 0.470662 22.6589 0.0712516 23.5155 1.35615C23.7511 2.38407 23.9438 3.54047 23.1943 4.11868Z" fill="#1E4231"/>
<path d="M18.7614 12.2778C18.3974 10.3076 18.1149 8.98956 18.119 6.83838C17.1981 5.92377 14.9864 5.54983 12.8509 5.63914C11.2448 6.53856 10.3863 7.71399 8.78205 10.2648C8.89707 12.83 9.06469 14.1452 9.80997 15.9611L14.3285 17.1175L18.7614 12.2778Z" fill="#1E4231"/>
<path d="M25.1431 13.5627L19.2325 12.6632C17.862 13.4128 16.0203 15.4686 14.8211 17.3531L16.5985 22.7497C18.9946 23.6992 20.3718 23.9822 22.8731 24.1416C25.0534 22.2685 25.9642 21.3111 27.0918 19.7516C27.0793 17.4233 26.4601 15.9001 25.1431 13.5627Z" fill="#1E4231"/>
<path d="M27.9913 9.00128C27.3187 10.8338 26.6721 11.8332 25.5714 13.5627C26.792 15.6827 27.1774 17.301 27.6486 19.7516L31.6318 20.0728C33.1523 18.2954 33.7561 17.3017 34.2658 14.9332C33.9695 12.6292 33.6662 11.1856 32.21 9.40817C30.6467 8.33742 29.0834 8.35424 27.9913 9.00128Z" fill="#1E4231"/>
<path d="M31.8674 20.3512C33.1653 18.8432 33.664 17.6458 34.5871 15.5543C34.4157 18.9592 33.2987 21.2805 30.8394 24.2273C31.3552 22.6916 31.7159 21.7638 31.8674 20.3512Z" fill="#1E4231"/>
<path d="M20.3461 28.703C22.7628 28.3851 24.8004 27.7738 24.8647 27.1397C24.2927 26.616 24.0765 26.3082 23.7725 25.7478C23.4489 25.3072 23.2721 25.0579 22.8731 24.6556C22.595 24.5675 21.0314 24.3894 19.4681 24.0132C18.3763 23.7504 17.2616 23.2783 16.3629 23.0709C15.2712 23.9172 14.5491 24.3527 13.1935 25.1053C13.9636 26.3023 14.5792 26.9091 15.849 27.9321C17.5537 28.4963 18.5335 28.6916 20.3461 28.703Z" fill="#1E4231"/>
<path d="M9.98129 24.0132C11.6926 25.6765 12.8552 26.4686 14.5427 27.3539C13.2761 25.831 12.2719 24.686 11.1447 23.4564C10.0884 22.5998 9.55299 21.8074 8.63215 20.6724C8.47635 20.3937 8.05498 20.2676 7.53999 20.2441C8.30207 21.6764 8.77929 22.4897 9.98129 24.0132Z" fill="#1E4231"/>
<path d="M8.46083 19.9015C8.89475 18.3511 8.97479 17.6957 9.38167 16.1967C8.78205 13.991 8.5752 12.5943 8.46083 10.2648C7.99584 9.93727 7.7628 9.67816 7.11169 9.85789C6.64572 11.9337 6.4686 13.0608 6.46924 14.9332C6.50511 16.8998 6.65324 17.9168 7.39008 19.4518C7.70616 19.7794 7.86653 20.1473 8.46083 19.9015Z" fill="#1E4231"/>
<path d="M23.9224 28.2533C26.0211 27.0755 27.2573 26.5955 29.2119 25.7049C28.4445 26.3084 27.847 26.6774 26.6849 27.3539C25.4013 27.915 24.881 28.0253 23.9224 28.2533Z" fill="#1E4231"/>
</svg>
