<svg width="46" height="46" viewBox="0 0 46 46" fill="none" xmlns="http://www.w3.org/2000/svg">
<path d="M37.5849 17.5484C38.1024 17.9114 38.5947 17.2897 38.124 16.8656C38.124 16.8656 36.2588 15.1765 37.876 12.8801L44.9054 4.01434C44.9984 3.89891 45.0666 3.76554 45.1057 3.62256C45.1449 3.47958 45.1541 3.33007 45.1329 3.18336C45.1116 3.03665 45.0603 2.8959 44.9822 2.7699C44.9041 2.6439 44.8009 2.53536 44.679 2.45106L43.5326 1.64247C43.4124 1.55613 43.2757 1.49552 43.131 1.46443C42.9863 1.43334 42.8368 1.43245 42.6917 1.46179C42.5467 1.49114 42.4092 1.5501 42.288 1.63498C42.1668 1.71987 42.0644 1.82885 41.9872 1.95512L36.0001 11.554C34.3829 13.8468 32.1655 12.6609 32.1655 12.6609C31.6085 12.3626 31.1233 12.9879 31.6372 13.3545L37.5849 17.5484Z" fill="#196CA2"/>
<path d="M19.2005 44.9145L38.7649 17.7781L30.9449 12.2617L12.0059 39.8402C12.0059 39.8402 14.3634 44.4689 19.2005 44.9145Z" fill="#FAC21C"/>
<path d="M36.3511 16.5242L25.444 28.9442C25.1817 29.2424 24.7073 28.9118 24.9014 28.5632L32.937 14.1199C32.9598 14.0794 32.9908 14.044 33.028 14.0161C33.0652 13.9881 33.1078 13.9683 33.1532 13.9578C33.1985 13.9473 33.2455 13.9464 33.2912 13.9552C33.3369 13.9639 33.3803 13.9821 33.4186 14.0085L36.2864 16.0318C36.4553 16.1468 36.4804 16.3732 36.3511 16.5242Z" fill="#F7932A"/>
<path d="M44.9087 4.01776C45.0017 3.90233 45.0699 3.76896 45.109 3.62598C45.1482 3.483 45.1574 3.33349 45.1361 3.18678C45.1149 3.04007 45.0636 2.89932 44.9855 2.77332C44.9074 2.64732 44.8042 2.53878 44.6822 2.45448L43.5358 1.64588C43.4157 1.55955 43.2789 1.49894 43.1343 1.46785C42.9896 1.43676 42.84 1.43586 42.695 1.46521C42.55 1.49456 42.4125 1.55352 42.2913 1.6384C42.1701 1.72329 42.0677 1.83227 41.9905 1.95854L41.4155 2.88213L44.233 4.86948L44.9087 4.01776Z" fill="#FAC21C"/>
<path d="M43.4285 5.87937L39.8886 5.32593L39.2274 6.38608L42.6091 6.91437L43.4285 5.87937ZM41.5921 8.19733L38.408 7.6978L37.7467 8.75796L40.7727 9.23233L41.5921 8.19733ZM39.7556 10.5153L36.9274 10.0733L36.2661 11.1334L38.9327 11.5503L39.7556 10.5153Z" fill="#78A3AD"/>
<path d="M5.78594 44.911C8.63409 44.911 10.943 42.6021 10.943 39.754C10.943 36.9058 8.63409 34.5969 5.78594 34.5969C2.93779 34.5969 0.628906 36.9058 0.628906 39.754C0.628906 42.6021 2.93779 44.911 5.78594 44.911Z" fill="#ED6C30"/>
<path d="M3.691 39.8368C4.44719 39.8368 5.06021 39.2238 5.06021 38.4676C5.06021 37.7114 4.44719 37.0984 3.691 37.0984C2.9348 37.0984 2.32178 37.7114 2.32178 38.4676C2.32178 39.2238 2.9348 39.8368 3.691 39.8368Z" fill="#F48263"/>
<path d="M1.87076 43.1033C3.84373 42.4457 8.04842 40.6272 9.92795 36.6813C9.71592 36.3974 9.47873 36.1386 9.21639 35.905C7.52373 39.9264 3.01357 41.7161 1.28857 42.2696C1.45389 42.5678 1.64795 42.8446 1.87076 43.1033Z" fill="white"/>
<path d="M2.47803 43.7073C2.80865 43.984 3.17881 44.2176 3.57412 44.4081C5.58303 43.7899 9.0474 42.2662 10.8622 38.8342C10.776 38.3562 10.6251 37.9034 10.4166 37.4829C8.7024 41.8529 4.10959 43.3192 2.47803 43.7073Z" fill="white"/>
</svg>
