<svg width="46" height="53" viewBox="0 0 46 53" fill="none" xmlns="http://www.w3.org/2000/svg">
<path d="M36.5 15H8.5L1 52H44.5L36.5 15Z" fill="#60D64D" stroke="#60D64D"/>
<path d="M6 21H39" stroke="white"/>
<path d="M1.5 46L44 46" stroke="white"/>
<path d="M17 52.5V40C17 39.4477 17.4477 39 18 39H22.5M28 52.5V40C28 39.4477 27.5523 39 27 39H22.5M22.5 39V52.5" stroke="#FEE8A8" stroke-width="1.5"/>
<path d="M16 14.5V2C16 1.44772 16.4477 1 17 1H21.5M27 14.5V2C27 1.44772 26.5523 1 26 1H21.5M21.5 1V14.5" stroke="#FEE8A8" stroke-width="1.5"/>
</svg>
