<svg width="116" height="269" viewBox="0 0 116 269" fill="none" xmlns="http://www.w3.org/2000/svg">
<circle cx="5.17198" cy="5.17198" r="5.17198" fill="#000033" fill-opacity="0.15"/>
<circle cx="5.17198" cy="33.817" r="5.17198" fill="#000033" fill-opacity="0.15"/>
<circle cx="5.17198" cy="62.4615" r="5.17198" fill="#000033" fill-opacity="0.15"/>
<circle cx="5.17198" cy="91.1066" r="5.17198" fill="#000033" fill-opacity="0.15"/>
<circle cx="5.17198" cy="119.751" r="5.17198" fill="#000033" fill-opacity="0.15"/>
<circle cx="5.17198" cy="148.396" r="5.17198" fill="#000033" fill-opacity="0.15"/>
<circle cx="5.17198" cy="177.041" r="5.17198" fill="#000033" fill-opacity="0.15"/>
<circle cx="5.17198" cy="205.686" r="5.17198" fill="#000033" fill-opacity="0.15"/>
<circle cx="5.17198" cy="234.331" r="5.17198" fill="#000033" fill-opacity="0.15"/>
<circle cx="5.17198" cy="262.975" r="5.17198" fill="#000033" fill-opacity="0.15"/>
<circle cx="22.6784" cy="5.17198" r="5.17198" fill="#000033" fill-opacity="0.15"/>
<circle cx="22.6784" cy="33.817" r="5.17198" fill="#000033" fill-opacity="0.15"/>
<circle cx="22.6784" cy="62.4615" r="5.17198" fill="#000033" fill-opacity="0.15"/>
<circle cx="22.6784" cy="91.1066" r="5.17198" fill="#000033" fill-opacity="0.15"/>
<circle cx="22.6784" cy="119.751" r="5.17198" fill="#000033" fill-opacity="0.15"/>
<circle cx="22.6784" cy="148.396" r="5.17198" fill="#000033" fill-opacity="0.15"/>
<circle cx="22.6784" cy="177.041" r="5.17198" fill="#000033" fill-opacity="0.15"/>
<circle cx="22.6784" cy="205.686" r="5.17198" fill="#000033" fill-opacity="0.15"/>
<circle cx="22.6784" cy="234.331" r="5.17198" fill="#000033" fill-opacity="0.15"/>
<circle cx="22.6784" cy="262.975" r="5.17198" fill="#000033" fill-opacity="0.15"/>
<circle cx="40.1827" cy="5.17198" r="5.17198" fill="#000033" fill-opacity="0.15"/>
<circle cx="40.1829" cy="33.817" r="5.17198" fill="#000033" fill-opacity="0.15"/>
<circle cx="40.1829" cy="62.4615" r="5.17198" fill="#000033" fill-opacity="0.15"/>
<circle cx="40.1829" cy="91.1066" r="5.17198" fill="#000033" fill-opacity="0.15"/>
<circle cx="40.1829" cy="119.751" r="5.17198" fill="#000033" fill-opacity="0.15"/>
<circle cx="40.1829" cy="148.396" r="5.17198" fill="#000033" fill-opacity="0.15"/>
<circle cx="40.1829" cy="177.041" r="5.17198" fill="#000033" fill-opacity="0.15"/>
<circle cx="40.1829" cy="205.686" r="5.17198" fill="#000033" fill-opacity="0.15"/>
<circle cx="40.1829" cy="234.331" r="5.17198" fill="#000033" fill-opacity="0.15"/>
<circle cx="40.1829" cy="262.975" r="5.17198" fill="#000033" fill-opacity="0.15"/>
<circle cx="57.6874" cy="5.17198" r="5.17198" fill="#000033" fill-opacity="0.15"/>
<circle cx="57.6874" cy="33.817" r="5.17198" fill="#000033" fill-opacity="0.15"/>
<circle cx="57.6874" cy="62.4615" r="5.17198" fill="#000033" fill-opacity="0.15"/>
<circle cx="57.6874" cy="91.1066" r="5.17198" fill="#000033" fill-opacity="0.15"/>
<circle cx="57.6874" cy="119.751" r="5.17198" fill="#000033" fill-opacity="0.15"/>
<circle cx="57.6874" cy="148.396" r="5.17198" fill="#000033" fill-opacity="0.15"/>
<circle cx="57.6874" cy="177.041" r="5.17198" fill="#000033" fill-opacity="0.15"/>
<circle cx="57.6874" cy="205.686" r="5.17198" fill="#000033" fill-opacity="0.15"/>
<circle cx="57.6874" cy="234.331" r="5.17198" fill="#000033" fill-opacity="0.15"/>
<circle cx="57.6874" cy="262.975" r="5.17198" fill="#000033" fill-opacity="0.15"/>
<circle cx="75.1938" cy="5.17198" r="5.17198" fill="#000033" fill-opacity="0.15"/>
<circle cx="75.1938" cy="33.817" r="5.17198" fill="#000033" fill-opacity="0.15"/>
<circle cx="75.1938" cy="62.4615" r="5.17198" fill="#000033" fill-opacity="0.15"/>
<circle cx="75.1938" cy="91.1066" r="5.17198" fill="#000033" fill-opacity="0.15"/>
<circle cx="75.1938" cy="119.751" r="5.17198" fill="#000033" fill-opacity="0.15"/>
<circle cx="75.1938" cy="148.396" r="5.17198" fill="#000033" fill-opacity="0.15"/>
<circle cx="75.1938" cy="177.041" r="5.17198" fill="#000033" fill-opacity="0.15"/>
<circle cx="75.1938" cy="205.686" r="5.17198" fill="#000033" fill-opacity="0.15"/>
<circle cx="75.1938" cy="234.331" r="5.17198" fill="#000033" fill-opacity="0.15"/>
<circle cx="75.1938" cy="262.975" r="5.17198" fill="#000033" fill-opacity="0.15"/>
<circle cx="92.6982" cy="5.17198" r="5.17198" fill="#000033" fill-opacity="0.15"/>
<circle cx="92.6983" cy="33.817" r="5.17198" fill="#000033" fill-opacity="0.15"/>
<circle cx="92.6983" cy="62.4615" r="5.17198" fill="#000033" fill-opacity="0.15"/>
<circle cx="92.6983" cy="91.1066" r="5.17198" fill="#000033" fill-opacity="0.15"/>
<circle cx="92.6983" cy="119.751" r="5.17198" fill="#000033" fill-opacity="0.15"/>
<circle cx="92.6983" cy="148.396" r="5.17198" fill="#000033" fill-opacity="0.15"/>
<circle cx="92.6983" cy="177.041" r="5.17198" fill="#000033" fill-opacity="0.15"/>
<circle cx="92.6983" cy="205.686" r="5.17198" fill="#000033" fill-opacity="0.15"/>
<circle cx="92.6983" cy="234.331" r="5.17198" fill="#000033" fill-opacity="0.15"/>
<circle cx="92.6983" cy="262.975" r="5.17198" fill="#000033" fill-opacity="0.15"/>
<circle cx="110.203" cy="5.17198" r="5.17198" fill="#000033" fill-opacity="0.15"/>
<circle cx="110.203" cy="33.817" r="5.17198" fill="#000033" fill-opacity="0.15"/>
<circle cx="110.203" cy="62.4615" r="5.17198" fill="#000033" fill-opacity="0.15"/>
<circle cx="110.203" cy="91.1066" r="5.17198" fill="#000033" fill-opacity="0.15"/>
<circle cx="110.203" cy="119.751" r="5.17198" fill="#000033" fill-opacity="0.15"/>
<circle cx="110.203" cy="148.396" r="5.17198" fill="#000033" fill-opacity="0.15"/>
<circle cx="110.203" cy="177.041" r="5.17198" fill="#000033" fill-opacity="0.15"/>
<circle cx="110.203" cy="205.686" r="5.17198" fill="#000033" fill-opacity="0.15"/>
<circle cx="110.203" cy="234.331" r="5.17198" fill="#000033" fill-opacity="0.15"/>
<circle cx="110.203" cy="262.975" r="5.17198" fill="#000033" fill-opacity="0.15"/>
</svg>
