<svg width="228" height="133" viewBox="0 0 228 133" fill="none" xmlns="http://www.w3.org/2000/svg">
<g filter="url(#filter0_d_145_1956)">
<path d="M20 40.2965C20 27.0433 20 20.4166 24.1173 16.2994C28.2345 12.1821 34.8611 12.1821 48.1144 12.1821H179.668C192.922 12.1821 199.548 12.1821 203.666 16.2994C207.783 20.4166 207.783 27.0433 207.783 40.2965V76.3678C207.783 89.621 207.783 96.2476 203.666 100.365C199.548 104.482 192.922 104.482 179.668 104.482H48.1144C34.8611 104.482 28.2345 104.482 24.1173 100.365C20 96.2476 20 89.621 20 76.3678V40.2965Z" fill="white"/>
</g>
<path d="M54.6408 50.9789C53.4122 50.6202 52.6974 49.3285 53.1614 48.1356C55.3319 42.5547 59.3312 37.837 64.5526 34.761C70.4453 31.2895 77.4573 30.1666 84.178 31.6181C90.8987 33.0697 96.8295 36.9879 100.777 42.5848C104.274 47.5425 105.986 53.4915 105.677 59.4726C105.611 60.7531 104.426 61.6385 103.156 61.4578V61.4578C101.892 61.2778 101.025 60.1076 101.068 58.8313C101.234 53.9986 99.8135 49.2105 96.9868 45.2032C93.7116 40.5599 88.7913 37.3092 83.2157 36.105C77.6401 34.9008 71.8228 35.8324 66.9341 38.7124C62.7172 41.1967 59.4611 44.9716 57.6302 49.4415C57.145 50.626 55.8695 51.3376 54.6408 50.9789V50.9789Z" fill="#87D68D" fill-opacity="0.4"/>
<path d="M58.6984 43.078C57.6473 42.2803 56.1385 42.4808 55.4381 43.5989C52.3566 48.5182 50.9492 54.3358 51.4646 60.1864C52.0505 66.837 55.0795 73.0604 59.969 77.6596C64.8585 82.2587 71.263 84.9088 77.9508 85.1C84.6385 85.2911 91.1369 83.0099 96.1961 78.6951C101.255 74.3803 104.518 68.3367 105.356 61.7269C106.195 55.117 104.549 48.4078 100.737 42.8897C96.9253 37.3717 91.2155 33.4346 84.7063 31.8358C78.983 30.4301 72.9972 30.9194 67.6443 33.1922C66.4254 33.7098 65.9932 35.1766 66.6265 36.3396V36.3396C67.2531 37.4901 68.6869 37.9066 69.9015 37.4157C74.2224 35.6693 79.0188 35.3176 83.6101 36.4453C88.976 37.7633 93.6829 41.0088 96.8254 45.5577C99.968 50.1065 101.324 55.6373 100.633 61.0862C99.9419 66.5351 97.2524 71.5172 93.0818 75.0742C88.9113 78.6311 83.5542 80.5116 78.0411 80.3541C72.528 80.1965 67.2484 78.0119 63.2177 74.2205C59.187 70.4292 56.69 65.2988 56.207 59.8164C55.7946 55.1344 56.8758 50.4781 59.2632 46.5001C59.9422 45.3687 59.7494 43.8756 58.6984 43.078V43.078Z" fill="#029837" fill-opacity="0.7"/>
<path d="M68.8171 58.9286C69.0786 58.9286 69.3356 58.906 69.5881 58.8609C69.8406 58.8068 70.057 58.7302 70.2374 58.631C70.2464 58.5318 70.2509 58.4461 70.2509 58.374C70.2509 58.3018 70.2509 58.2387 70.2509 58.1846C70.2509 57.8239 70.2238 57.4857 70.1697 57.1701C70.1247 56.8455 70.039 56.5659 69.9127 56.3314C69.7955 56.088 69.6287 55.8986 69.4122 55.7633C69.2048 55.619 68.9433 55.5469 68.6277 55.5469C68.3662 55.5469 68.1407 55.601 67.9514 55.7092C67.771 55.8174 67.6222 55.9572 67.505 56.1285C67.3877 56.2999 67.3021 56.4847 67.248 56.6831C67.1939 56.8815 67.1668 57.0754 67.1668 57.2648C67.1668 57.8149 67.2976 58.2297 67.5591 58.5092C67.8296 58.7888 68.2489 58.9286 68.8171 58.9286ZM70.1021 59.916C69.8857 60.0152 69.6467 60.0919 69.3852 60.146C69.1237 60.2001 68.8712 60.2271 68.6277 60.2271C68.0686 60.2271 67.5906 60.155 67.1939 60.0107C66.8061 59.8574 66.486 59.65 66.2335 59.3885C65.99 59.1179 65.8096 58.8068 65.6924 58.4551C65.5752 58.1034 65.5165 57.7247 65.5165 57.3189C65.5165 56.9672 65.5752 56.611 65.6924 56.2503C65.8096 55.8806 65.9945 55.5424 66.247 55.2358C66.4995 54.9292 66.8196 54.6812 67.2074 54.4918C67.5952 54.2934 68.0551 54.1942 68.5871 54.1942C69.6873 54.1942 70.5169 54.5504 71.076 55.2628C71.6442 55.9662 71.9282 56.9627 71.9282 58.2522C71.9282 60.0738 71.4593 61.4536 70.5214 62.3914C69.5836 63.3293 68.1452 63.8027 66.2064 63.8117L66.1388 62.4455C66.6798 62.4455 67.1668 62.4004 67.5997 62.3103C68.0415 62.2201 68.4248 62.0758 68.7494 61.8774C69.0831 61.679 69.3626 61.422 69.5881 61.1064C69.8135 60.7817 69.9849 60.385 70.1021 59.916ZM79.5892 59.0909C79.5892 60.669 79.3006 61.8819 78.7235 62.7296C78.1464 63.5682 77.3483 63.9876 76.3293 63.9876C75.3102 63.9876 74.5122 63.5682 73.935 62.7296C73.3579 61.8819 73.0693 60.669 73.0693 59.0909C73.0693 58.3063 73.1415 57.612 73.2857 57.0078C73.4391 56.3946 73.6555 55.8806 73.935 55.4657C74.2236 55.0509 74.5663 54.7353 74.9631 54.5189C75.3689 54.3024 75.8243 54.1942 76.3293 54.1942C77.3483 54.1942 78.1464 54.6181 78.7235 55.4657C79.3006 56.3044 79.5892 57.5128 79.5892 59.0909ZM77.8984 59.0909C77.8984 58.6039 77.8713 58.1485 77.8172 57.7247C77.7631 57.3009 77.6729 56.9356 77.5467 56.629C77.4294 56.3134 77.2716 56.0654 77.0732 55.8851C76.8748 55.7047 76.6268 55.6145 76.3293 55.6145C76.0317 55.6145 75.7792 55.7047 75.5718 55.8851C75.3734 56.0654 75.2111 56.3134 75.0848 56.629C74.9676 56.9356 74.8819 57.3009 74.8278 57.7247C74.7827 58.1485 74.7602 58.6039 74.7602 59.0909C74.7602 59.5779 74.7827 60.0333 74.8278 60.4571C74.8819 60.8809 74.9676 61.2507 75.0848 61.5663C75.2111 61.8729 75.3734 62.1164 75.5718 62.2967C75.7792 62.4771 76.0317 62.5673 76.3293 62.5673C76.6268 62.5673 76.8748 62.4771 77.0732 62.2967C77.2716 62.1164 77.4294 61.8729 77.5467 61.5663C77.6729 61.2507 77.7631 60.8809 77.8172 60.4571C77.8713 60.0333 77.8984 59.5779 77.8984 59.0909ZM85.2212 56.7643C85.2212 57.5849 85.0093 58.2162 84.5854 58.658C84.1706 59.0999 83.625 59.3208 82.9487 59.3208C82.615 59.3208 82.3084 59.2667 82.0289 59.1585C81.7493 59.0413 81.5104 58.8745 81.312 58.658C81.1136 58.4416 80.9558 58.1756 80.8385 57.86C80.7303 57.5353 80.6762 57.1701 80.6762 56.7643C80.6762 55.9347 80.8836 55.3034 81.2984 54.8706C81.7223 54.4287 82.2724 54.2077 82.9487 54.2077C83.625 54.2077 84.1706 54.4287 84.5854 54.8706C85.0093 55.3034 85.2212 55.9347 85.2212 56.7643ZM83.9361 56.7643C83.9361 56.2864 83.846 55.9301 83.6656 55.6957C83.4943 55.4522 83.2553 55.3305 82.9487 55.3305C82.6421 55.3305 82.4031 55.4522 82.2318 55.6957C82.0604 55.9301 81.9748 56.2864 81.9748 56.7643C81.9748 57.2422 82.0604 57.603 82.2318 57.8464C82.4031 58.0809 82.6421 58.1981 82.9487 58.1981C83.2553 58.1981 83.4943 58.0809 83.6656 57.8464C83.846 57.603 83.9361 57.2422 83.9361 56.7643ZM87.9671 54.4106H89.5227L84.2337 63.7847H82.6782L87.9671 54.4106ZM91.5382 61.4445C91.5382 62.2652 91.3262 62.8964 90.9024 63.3383C90.4876 63.7802 89.942 64.0011 89.2657 64.0011C88.932 64.0011 88.6254 63.9425 88.3459 63.8252C88.0663 63.717 87.8273 63.5547 87.6289 63.3383C87.4305 63.1219 87.2727 62.8558 87.1555 62.5402C87.0473 62.2156 86.9932 61.8503 86.9932 61.4445C86.9932 60.6149 87.2006 59.9837 87.6154 59.5508C88.0393 59.1089 88.5893 58.888 89.2657 58.888C89.942 58.888 90.4876 59.1089 90.9024 59.5508C91.3262 59.9837 91.5382 60.6149 91.5382 61.4445ZM90.2531 61.4445C90.2531 60.9666 90.1629 60.6104 89.9826 60.3759C89.8113 60.1325 89.5723 60.0107 89.2657 60.0107C88.9591 60.0107 88.7201 60.1325 88.5488 60.3759C88.3774 60.6104 88.2917 60.9666 88.2917 61.4445C88.2917 61.9225 88.3774 62.2832 88.5488 62.5267C88.7201 62.7611 88.9591 62.8784 89.2657 62.8784C89.5723 62.8784 89.8113 62.7611 89.9826 62.5267C90.1629 62.2832 90.2531 61.9225 90.2531 61.4445Z" fill="#000033" fill-opacity="0.85"/>
<path d="M120.672 49.6338C121.465 49.6338 122.043 49.4996 122.405 49.2312C122.766 48.9628 122.947 48.5835 122.947 48.0934C122.947 47.8016 122.883 47.5507 122.755 47.3406C122.638 47.1306 122.463 46.9438 122.23 46.7805C122.008 46.6054 121.734 46.4479 121.407 46.3078C121.08 46.1561 120.707 46.0102 120.287 45.8702C119.866 45.7185 119.458 45.5551 119.061 45.3801C118.676 45.1933 118.332 44.9658 118.028 44.6974C117.737 44.4289 117.497 44.108 117.311 43.7346C117.136 43.3611 117.048 42.9118 117.048 42.3867C117.048 41.2897 117.427 40.4319 118.186 39.8134C118.945 39.1832 119.977 38.8681 121.284 38.8681C122.043 38.8681 122.714 38.9557 123.297 39.1307C123.893 39.2941 124.359 39.475 124.698 39.6734L124.015 41.4589C123.618 41.2372 123.181 41.0679 122.702 40.9512C122.236 40.8345 121.751 40.7762 121.249 40.7762C120.654 40.7762 120.187 40.8987 119.849 41.1438C119.522 41.3889 119.359 41.7331 119.359 42.1766C119.359 42.445 119.411 42.6784 119.516 42.8768C119.633 43.0635 119.791 43.2328 119.989 43.3845C120.199 43.5362 120.438 43.6762 120.707 43.8046C120.987 43.933 121.29 44.0555 121.617 44.1722C122.189 44.3823 122.696 44.5982 123.14 44.8199C123.595 45.0299 123.974 45.2867 124.278 45.5901C124.593 45.8819 124.832 46.232 124.995 46.6404C125.159 47.0372 125.241 47.5215 125.241 48.0934C125.241 49.1903 124.85 50.0423 124.068 50.6491C123.297 51.2443 122.165 51.5419 120.672 51.5419C120.17 51.5419 119.709 51.5069 119.289 51.4368C118.88 51.3785 118.513 51.3026 118.186 51.2093C117.871 51.1159 117.597 51.0226 117.363 50.9292C117.13 50.8242 116.943 50.7308 116.803 50.6491L117.451 48.8461C117.766 49.0211 118.192 49.1962 118.729 49.3712C119.265 49.5463 119.913 49.6338 120.672 49.6338ZM134.414 50.9992C134.006 51.1042 133.475 51.2093 132.821 51.3143C132.167 51.431 131.45 51.4894 130.668 51.4894C129.933 51.4894 129.314 51.3843 128.812 51.1743C128.322 50.9642 127.925 50.6725 127.622 50.299C127.33 49.9256 127.12 49.4821 126.992 48.9686C126.863 48.4435 126.799 47.8716 126.799 47.2531V42.1241H128.917V46.9205C128.917 47.9008 129.057 48.601 129.337 49.0211C129.629 49.4413 130.131 49.6513 130.843 49.6513C131.1 49.6513 131.368 49.6396 131.648 49.6163C131.94 49.593 132.156 49.5638 132.296 49.5288V42.1241H134.414V50.9992ZM136.427 46.7104C136.427 46.0336 136.532 45.4034 136.742 44.8199C136.952 44.2247 137.25 43.7112 137.635 43.2794C138.032 42.8476 138.51 42.5092 139.07 42.2641C139.631 42.0191 140.261 41.8965 140.961 41.8965C141.825 41.8965 142.642 42.0541 143.412 42.3692L142.957 44.1022C142.712 43.9971 142.431 43.9096 142.116 43.8396C141.813 43.7696 141.486 43.7346 141.136 43.7346C140.308 43.7346 139.677 43.9971 139.246 44.5223C138.814 45.0358 138.598 45.7652 138.598 46.7104C138.598 47.6207 138.802 48.3443 139.211 48.8811C139.619 49.4062 140.308 49.6688 141.276 49.6688C141.638 49.6688 141.994 49.6338 142.344 49.5638C142.694 49.4938 142.997 49.4062 143.254 49.3012L143.552 51.0517C143.318 51.1684 142.962 51.2735 142.484 51.3668C142.017 51.4602 141.533 51.5069 141.031 51.5069C140.249 51.5069 139.566 51.3902 138.983 51.1568C138.411 50.9117 137.933 50.5791 137.548 50.159C137.174 49.7272 136.894 49.2195 136.707 48.636C136.521 48.0408 136.427 47.399 136.427 46.7104ZM144.509 46.7104C144.509 46.0336 144.614 45.4034 144.824 44.8199C145.034 44.2247 145.332 43.7112 145.717 43.2794C146.114 42.8476 146.592 42.5092 147.152 42.2641C147.712 42.0191 148.343 41.8965 149.043 41.8965C149.906 41.8965 150.723 42.0541 151.494 42.3692L151.038 44.1022C150.793 43.9971 150.513 43.9096 150.198 43.8396C149.895 43.7696 149.568 43.7346 149.218 43.7346C148.389 43.7346 147.759 43.9971 147.327 44.5223C146.896 45.0358 146.68 45.7652 146.68 46.7104C146.68 47.6207 146.884 48.3443 147.292 48.8811C147.701 49.4062 148.389 49.6688 149.358 49.6688C149.72 49.6688 150.076 49.6338 150.426 49.5638C150.776 49.4938 151.079 49.4062 151.336 49.3012L151.634 51.0517C151.4 51.1684 151.044 51.2735 150.566 51.3668C150.099 51.4602 149.615 51.5069 149.113 51.5069C148.331 51.5069 147.648 51.3902 147.065 51.1568C146.493 50.9117 146.014 50.5791 145.629 50.159C145.256 49.7272 144.976 49.2195 144.789 48.636C144.602 48.0408 144.509 47.399 144.509 46.7104ZM152.591 46.7455C152.591 45.9402 152.707 45.2342 152.941 44.6273C153.186 44.0205 153.507 43.5187 153.904 43.1219C154.3 42.7134 154.756 42.41 155.269 42.2116C155.783 42.0016 156.308 41.8965 156.845 41.8965C158.105 41.8965 159.085 42.2875 159.785 43.0694C160.497 43.8513 160.853 45.0183 160.853 46.5704C160.853 46.6871 160.847 46.8213 160.836 46.973C160.836 47.1131 160.83 47.2414 160.818 47.3581H154.779C154.837 48.0934 155.094 48.6652 155.549 49.0736C156.016 49.4704 156.687 49.6688 157.562 49.6688C158.076 49.6688 158.543 49.6221 158.963 49.5288C159.394 49.4354 159.733 49.3362 159.978 49.2312L160.258 50.9642C160.141 51.0226 159.978 51.0867 159.768 51.1568C159.569 51.2151 159.336 51.2676 159.068 51.3143C158.811 51.3727 158.531 51.4193 158.227 51.4543C157.924 51.4894 157.615 51.5069 157.3 51.5069C156.494 51.5069 155.794 51.3902 155.199 51.1568C154.604 50.9117 154.114 50.5791 153.729 50.159C153.343 49.7272 153.058 49.2254 152.871 48.6535C152.684 48.07 152.591 47.434 152.591 46.7455ZM158.735 45.8002C158.735 45.5084 158.694 45.2342 158.613 44.9774C158.531 44.709 158.408 44.4815 158.245 44.2947C158.093 44.0963 157.901 43.9446 157.667 43.8396C157.446 43.7229 157.177 43.6645 156.862 43.6645C156.535 43.6645 156.249 43.7287 156.004 43.8571C155.759 43.9738 155.549 44.1313 155.374 44.3297C155.211 44.5281 155.082 44.7557 154.989 45.0124C154.896 45.2692 154.831 45.5318 154.796 45.8002H158.735ZM165.217 49.7563C165.777 49.7563 166.186 49.6922 166.442 49.5638C166.699 49.4237 166.828 49.1903 166.828 48.8636C166.828 48.5602 166.687 48.3093 166.407 48.1109C166.139 47.9125 165.69 47.6966 165.06 47.4632C164.674 47.3231 164.318 47.1773 163.992 47.0255C163.677 46.8622 163.402 46.6754 163.169 46.4654C162.936 46.2553 162.749 46.0044 162.609 45.7127C162.48 45.4092 162.416 45.0416 162.416 44.6098C162.416 43.7696 162.725 43.1102 163.344 42.6317C163.963 42.1416 164.803 41.8965 165.865 41.8965C166.402 41.8965 166.915 41.949 167.405 42.0541C167.895 42.1474 168.263 42.2408 168.508 42.3342L168.123 44.0497C167.89 43.9446 167.592 43.8513 167.23 43.7696C166.868 43.6762 166.448 43.6295 165.97 43.6295C165.538 43.6295 165.188 43.7054 164.919 43.8571C164.651 43.9971 164.517 44.2189 164.517 44.5223C164.517 44.674 164.54 44.8082 164.587 44.9249C164.645 45.0416 164.739 45.1525 164.867 45.2575C164.995 45.3509 165.165 45.4501 165.375 45.5551C165.585 45.6485 165.841 45.7477 166.145 45.8527C166.647 46.0394 167.073 46.2261 167.423 46.4129C167.773 46.5879 168.059 46.7921 168.28 47.0255C168.514 47.2473 168.683 47.504 168.788 47.7958C168.893 48.0875 168.946 48.4376 168.946 48.8461C168.946 49.7213 168.619 50.3865 167.965 50.8417C167.324 51.2851 166.402 51.5069 165.2 51.5069C164.394 51.5069 163.747 51.4368 163.256 51.2968C162.766 51.1684 162.422 51.0634 162.224 50.9817L162.591 49.2137C162.906 49.3421 163.28 49.4646 163.712 49.5813C164.155 49.698 164.657 49.7563 165.217 49.7563ZM173.042 49.7563C173.603 49.7563 174.011 49.6922 174.268 49.5638C174.525 49.4237 174.653 49.1903 174.653 48.8636C174.653 48.5602 174.513 48.3093 174.233 48.1109C173.964 47.9125 173.515 47.6966 172.885 47.4632C172.5 47.3231 172.144 47.1773 171.817 47.0255C171.502 46.8622 171.228 46.6754 170.994 46.4654C170.761 46.2553 170.574 46.0044 170.434 45.7127C170.306 45.4092 170.242 45.0416 170.242 44.6098C170.242 43.7696 170.551 43.1102 171.169 42.6317C171.788 42.1416 172.628 41.8965 173.69 41.8965C174.227 41.8965 174.74 41.949 175.231 42.0541C175.721 42.1474 176.088 42.2408 176.333 42.3342L175.948 44.0497C175.715 43.9446 175.417 43.8513 175.056 43.7696C174.694 43.6762 174.274 43.6295 173.795 43.6295C173.363 43.6295 173.013 43.7054 172.745 43.8571C172.476 43.9971 172.342 44.2189 172.342 44.5223C172.342 44.674 172.366 44.8082 172.412 44.9249C172.471 45.0416 172.564 45.1525 172.692 45.2575C172.821 45.3509 172.99 45.4501 173.2 45.5551C173.41 45.6485 173.667 45.7477 173.97 45.8527C174.472 46.0394 174.898 46.2261 175.248 46.4129C175.598 46.5879 175.884 46.7921 176.106 47.0255C176.339 47.2473 176.508 47.504 176.613 47.7958C176.718 48.0875 176.771 48.4376 176.771 48.8461C176.771 49.7213 176.444 50.3865 175.791 50.8417C175.149 51.2851 174.227 51.5069 173.025 51.5069C172.22 51.5069 171.572 51.4368 171.082 51.2968C170.592 51.1684 170.247 51.0634 170.049 50.9817L170.417 49.2137C170.732 49.3421 171.105 49.4646 171.537 49.5813C171.98 49.698 172.482 49.7563 173.042 49.7563ZM121.074 65.0257C122.825 65.0257 124.161 65.3466 125.083 65.9885C126.017 66.6303 126.483 67.6106 126.483 68.9293C126.483 70.5748 125.672 71.6893 124.05 72.2728C124.272 72.5412 124.523 72.868 124.803 73.2531C125.083 73.6382 125.369 74.0583 125.661 74.5135C125.952 74.9569 126.233 75.4179 126.501 75.8964C126.769 76.3632 127.009 76.8242 127.219 77.2793H124.75C124.529 76.8592 124.289 76.439 124.033 76.0189C123.776 75.5871 123.513 75.1728 123.245 74.7761C122.988 74.3676 122.731 73.9883 122.475 73.6382C122.218 73.2764 121.979 72.9555 121.757 72.6754C121.594 72.6871 121.454 72.6929 121.337 72.6929C121.22 72.6929 121.109 72.6929 121.004 72.6929H119.936V77.2793H117.731V65.3233C118.268 65.2066 118.839 65.1307 119.446 65.0957C120.053 65.049 120.596 65.0257 121.074 65.0257ZM121.232 66.9337C120.765 66.9337 120.333 66.9512 119.936 66.9863V70.9074H120.899C121.436 70.9074 121.909 70.8782 122.317 70.8199C122.726 70.7615 123.064 70.6565 123.332 70.5048C123.613 70.3531 123.823 70.1489 123.963 69.8921C124.103 69.6354 124.173 69.3086 124.173 68.9118C124.173 68.5384 124.103 68.2233 123.963 67.9665C123.823 67.7098 123.618 67.5056 123.35 67.3539C123.093 67.2021 122.784 67.0971 122.422 67.0388C122.06 66.9687 121.664 66.9337 121.232 66.9337ZM128.14 72.7455C128.14 71.9402 128.257 71.2342 128.49 70.6273C128.735 70.0205 129.056 69.5187 129.453 69.1219C129.85 68.7134 130.305 68.41 130.819 68.2116C131.332 68.0016 131.857 67.8965 132.394 67.8965C133.654 67.8965 134.635 68.2875 135.335 69.0694C136.047 69.8513 136.403 71.0183 136.403 72.5704C136.403 72.6871 136.397 72.8213 136.385 72.973C136.385 73.1131 136.379 73.2414 136.368 73.3581H130.328C130.387 74.0934 130.644 74.6652 131.099 75.0736C131.565 75.4704 132.236 75.6688 133.112 75.6688C133.625 75.6688 134.092 75.6221 134.512 75.5288C134.944 75.4354 135.282 75.3362 135.527 75.2312L135.808 76.9642C135.691 77.0226 135.527 77.0867 135.317 77.1568C135.119 77.2151 134.886 77.2676 134.617 77.3143C134.36 77.3727 134.08 77.4193 133.777 77.4543C133.474 77.4894 133.164 77.5069 132.849 77.5069C132.044 77.5069 131.344 77.3902 130.749 77.1568C130.153 76.9117 129.663 76.5791 129.278 76.159C128.893 75.7272 128.607 75.2254 128.42 74.6535C128.234 74.07 128.14 73.434 128.14 72.7455ZM134.285 71.8002C134.285 71.5084 134.244 71.2342 134.162 70.9774C134.08 70.709 133.958 70.4815 133.794 70.2947C133.643 70.0963 133.45 69.9446 133.217 69.8396C132.995 69.7229 132.727 69.6645 132.412 69.6645C132.085 69.6645 131.799 69.7287 131.554 69.8571C131.309 69.9738 131.099 70.1313 130.924 70.3297C130.76 70.5281 130.632 70.7557 130.538 71.0124C130.445 71.2692 130.381 71.5318 130.346 71.8002H134.285ZM140.767 75.7563C141.327 75.7563 141.735 75.6922 141.992 75.5638C142.249 75.4237 142.377 75.1903 142.377 74.8636C142.377 74.5602 142.237 74.3093 141.957 74.1109C141.688 73.9125 141.239 73.6966 140.609 73.4632C140.224 73.3231 139.868 73.1773 139.541 73.0255C139.226 72.8622 138.952 72.6754 138.718 72.4654C138.485 72.2553 138.298 72.0044 138.158 71.7127C138.03 71.4092 137.966 71.0416 137.966 70.6098C137.966 69.7696 138.275 69.1102 138.894 68.6317C139.512 68.1416 140.352 67.8965 141.414 67.8965C141.951 67.8965 142.465 67.949 142.955 68.0541C143.445 68.1474 143.812 68.2408 144.058 68.3342L143.672 70.0497C143.439 69.9446 143.141 69.8513 142.78 69.7696C142.418 69.6762 141.998 69.6295 141.519 69.6295C141.087 69.6295 140.737 69.7054 140.469 69.8571C140.201 69.9971 140.066 70.2189 140.066 70.5223C140.066 70.674 140.09 70.8082 140.136 70.9249C140.195 71.0416 140.288 71.1525 140.416 71.2575C140.545 71.3509 140.714 71.4501 140.924 71.5551C141.134 71.6485 141.391 71.7477 141.694 71.8527C142.196 72.0394 142.622 72.2261 142.972 72.4129C143.322 72.5879 143.608 72.7921 143.83 73.0255C144.063 73.2473 144.233 73.504 144.338 73.7958C144.443 74.0875 144.495 74.4376 144.495 74.8461C144.495 75.7213 144.168 76.3865 143.515 76.8417C142.873 77.2851 141.951 77.5069 140.749 77.5069C139.944 77.5069 139.296 77.4368 138.806 77.2968C138.316 77.1684 137.972 77.0634 137.773 76.9817L138.141 75.2137C138.456 75.3421 138.829 75.4646 139.261 75.5813C139.705 75.698 140.206 75.7563 140.767 75.7563ZM153.808 76.9992C153.4 77.1042 152.869 77.2093 152.215 77.3143C151.562 77.431 150.844 77.4894 150.062 77.4894C149.327 77.4894 148.709 77.3843 148.207 77.1743C147.717 76.9642 147.32 76.6725 147.016 76.299C146.725 75.9256 146.515 75.4821 146.386 74.9686C146.258 74.4435 146.194 73.8716 146.194 73.2531V68.1241H148.312V72.9205C148.312 73.9008 148.452 74.601 148.732 75.0211C149.024 75.4413 149.526 75.6513 150.237 75.6513C150.494 75.6513 150.763 75.6396 151.043 75.6163C151.334 75.593 151.55 75.5638 151.69 75.5288V68.1241H153.808V76.9992ZM159.515 77.4543C158.885 77.4427 158.36 77.3727 157.94 77.2443C157.531 77.1159 157.205 76.935 156.96 76.7016C156.714 76.4566 156.539 76.159 156.434 75.8089C156.341 75.4471 156.294 75.0386 156.294 74.5835V64.0454L158.412 63.6953V74.1809C158.412 74.4376 158.43 74.6535 158.465 74.8286C158.512 75.0036 158.588 75.1553 158.693 75.2837C158.798 75.4004 158.938 75.4938 159.113 75.5638C159.299 75.6221 159.533 75.6688 159.813 75.7038L159.515 77.4543ZM161.246 65.7084L163.364 65.3583V68.1241H166.62V69.8921H163.364V73.6207C163.364 74.3559 163.481 74.8811 163.714 75.1962C163.948 75.5113 164.345 75.6688 164.905 75.6688C165.29 75.6688 165.628 75.628 165.92 75.5463C166.223 75.4646 166.463 75.3887 166.638 75.3187L166.988 76.9992C166.743 77.1042 166.422 77.2093 166.025 77.3143C165.628 77.431 165.161 77.4894 164.625 77.4894C163.971 77.4894 163.423 77.4018 162.979 77.2268C162.547 77.0517 162.203 76.8008 161.946 76.4741C161.69 76.1356 161.509 75.733 161.404 75.2662C161.299 74.7877 161.246 74.2451 161.246 73.6382V65.7084Z" fill="#000033" fill-opacity="0.85"/>
<defs>
<filter id="filter0_d_145_1956" x="0.107754" y="0.246781" width="227.567" height="132.084" filterUnits="userSpaceOnUse" color-interpolation-filters="sRGB">
<feFlood flood-opacity="0" result="BackgroundImageFix"/>
<feColorMatrix in="SourceAlpha" type="matrix" values="0 0 0 0 0 0 0 0 0 0 0 0 0 0 0 0 0 0 127 0" result="hardAlpha"/>
<feOffset dy="7.9569"/>
<feGaussianBlur stdDeviation="9.94612"/>
<feComposite in2="hardAlpha" operator="out"/>
<feColorMatrix type="matrix" values="0 0 0 0 0.00784314 0 0 0 0 0.576471 0 0 0 0 0.203922 0 0 0 0.1 0"/>
<feBlend mode="normal" in2="BackgroundImageFix" result="effect1_dropShadow_145_1956"/>
<feBlend mode="normal" in="SourceGraphic" in2="effect1_dropShadow_145_1956" result="shape"/>
</filter>
</defs>
</svg>
