<svg width="299" height="339" viewBox="0 0 299 339" fill="none" xmlns="http://www.w3.org/2000/svg">
<path opacity="0.9" fill-rule="evenodd" clip-rule="evenodd" d="M129.513 9.59247e-05C169.308 -0.0789126 186.23 48.6683 216.064 73.5118C241.987 95.0986 280.121 105.485 292.682 135.875C305.477 166.829 297.313 202.734 281.806 232.564C267.569 259.95 237.415 274.091 211.408 292.216C185.141 310.522 162.171 338.631 129.513 338.7C96.841 338.769 67.7808 316.614 47.3513 292.562C29.7668 271.86 34.6933 242.837 26.5256 217.452C18.5978 192.813 -2.69357 171.873 0.283223 146.277C3.56122 118.092 23.9827 95.6369 43.2262 73.855C68.7139 45.005 89.7013 0.0791369 129.513 9.59247e-05Z" fill="#96A9A3"/>
</svg>
