<svg width="561" height="561" viewBox="0 0 561 561" fill="none" xmlns="http://www.w3.org/2000/svg">
<path fill-rule="evenodd" clip-rule="evenodd" d="M330.993 38.1382L282.867 2L233.952 38.1382L173.992 21.6403L143.222 74.2764L82.4731 80.5614L76.1615 142.625L22.5127 172.478L39.0807 232.97L2 277.75L39.0807 324.887L21.7238 386.165L75.3725 416.018L82.4731 476.511L145.589 481.224L173.992 537.788L233.952 522.076L282.867 559L330.993 522.076L389.375 537.788L416.989 481.224L479.316 476.511L486.416 416.018L540.065 386.165L524.286 324.887L559 277.75L524.286 232.97L540.065 173.264L486.416 137.126L479.316 82.9182L417.778 71.9196L389.375 21.6403L330.993 38.1382ZM251.308 128.484L277.344 119.056L308.902 131.626H342.827L363.34 153.623L395.687 163.836L404.365 194.475L430.401 217.258L426.456 250.254L441.446 277.75L430.401 306.818V337.457L406.732 359.454L396.476 393.236L364.129 401.092L343.616 426.231H310.48L282.078 438.801L253.675 426.231L221.328 428.588L197.66 404.234L166.102 393.236L157.423 364.168L130.599 341.385L132.966 309.961L117.976 277.75L132.966 250.254L130.599 217.258L155.845 196.047L164.524 163.836L196.871 153.623L219.75 128.484H251.308Z" fill="url(#paint0_linear_554_3290)"/>
<path d="M282.867 2L283.467 1.20035L282.872 0.753102L282.273 1.1957L282.867 2ZM330.993 38.1382L330.392 38.9379L330.788 39.2352L331.265 39.1005L330.993 38.1382ZM233.952 38.1382L233.687 39.1024L234.155 39.2313L234.546 38.9425L233.952 38.1382ZM173.992 21.6403L174.257 20.6762L173.516 20.4723L173.128 21.1357L173.992 21.6403ZM143.222 74.2764L143.325 75.2711L143.83 75.2189L144.086 74.7811L143.222 74.2764ZM82.4731 80.5614L82.3702 79.5667L81.5606 79.6504L81.4782 80.4602L82.4731 80.5614ZM76.1615 142.625L76.6477 143.499L77.1036 143.245L77.1563 142.726L76.1615 142.625ZM22.5127 172.478L22.0265 171.604L21.3411 171.986L21.5483 172.742L22.5127 172.478ZM39.0807 232.97L39.8509 233.608L40.1826 233.208L40.0452 232.706L39.0807 232.97ZM2 277.75L1.22979 277.113L0.714995 277.734L1.21404 278.369L2 277.75ZM39.0807 324.887L40.0429 325.16L40.1818 324.669L39.8667 324.269L39.0807 324.887ZM21.7238 386.165L20.7616 385.892L20.546 386.654L21.2375 387.039L21.7238 386.165ZM75.3725 416.018L76.3657 415.902L76.306 415.393L75.8588 415.145L75.3725 416.018ZM82.4731 476.511L81.4799 476.627L81.5761 477.446L82.3986 477.508L82.4731 476.511ZM145.589 481.224L146.483 480.776L146.229 480.269L145.664 480.227L145.589 481.224ZM173.992 537.788L173.098 538.237L173.461 538.961L174.245 538.756L173.992 537.788ZM233.952 522.076L234.554 521.278L234.167 520.986L233.698 521.109L233.952 522.076ZM282.867 559L282.264 559.798L282.872 560.257L283.476 559.793L282.867 559ZM330.993 522.076L331.253 521.111L330.776 520.982L330.384 521.283L330.993 522.076ZM389.375 537.788L389.115 538.754L389.912 538.968L390.274 538.227L389.375 537.788ZM416.989 481.224L416.913 480.227L416.342 480.27L416.09 480.786L416.989 481.224ZM479.316 476.511L479.391 477.508L480.213 477.446L480.309 476.627L479.316 476.511ZM486.416 416.018L485.93 415.145L485.483 415.393L485.423 415.902L486.416 416.018ZM540.065 386.165L540.551 387.039L541.226 386.663L541.034 385.916L540.065 386.165ZM524.286 324.887L523.481 324.294L523.199 324.677L523.318 325.137L524.286 324.887ZM559 277.75L559.805 278.343L560.253 277.735L559.79 277.138L559 277.75ZM524.286 232.97L523.319 232.715L523.193 233.193L523.496 233.583L524.286 232.97ZM540.065 173.264L541.032 173.519L541.214 172.832L540.624 172.434L540.065 173.264ZM486.416 137.126L485.425 137.255L485.483 137.703L485.858 137.955L486.416 137.126ZM479.316 82.9182L480.307 82.7883L480.212 82.0626L479.492 81.9338L479.316 82.9182ZM417.778 71.9196L416.907 72.4114L417.138 72.8212L417.602 72.904L417.778 71.9196ZM389.375 21.6403L390.246 21.1485L389.86 20.4643L389.103 20.678L389.375 21.6403ZM277.344 119.056L277.714 118.127L277.361 117.987L277.003 118.116L277.344 119.056ZM251.308 128.484V129.484H251.484L251.649 129.424L251.308 128.484ZM308.902 131.626L308.532 132.555L308.71 132.626H308.902V131.626ZM342.827 131.626L343.558 130.944L343.262 130.626H342.827V131.626ZM363.34 153.623L362.608 154.305L362.788 154.498L363.039 154.577L363.34 153.623ZM395.687 163.836L396.649 163.564L396.502 163.045L395.988 162.883L395.687 163.836ZM404.365 194.475L403.403 194.748L403.484 195.033L403.707 195.228L404.365 194.475ZM430.401 217.258L431.393 217.377L431.456 216.853L431.059 216.506L430.401 217.258ZM426.456 250.254L425.463 250.135L425.425 250.452L425.578 250.733L426.456 250.254ZM441.446 277.75L442.381 278.106L442.544 277.676L442.324 277.272L441.446 277.75ZM430.401 306.818L429.466 306.463L429.401 306.634V306.818H430.401ZM430.401 337.457L431.081 338.189L431.401 337.893V337.457H430.401ZM406.732 359.454L406.051 358.722L405.854 358.905L405.775 359.164L406.732 359.454ZM396.476 393.236L396.712 394.207L397.267 394.073L397.432 393.526L396.476 393.236ZM364.129 401.092L363.893 400.12L363.566 400.199L363.354 400.459L364.129 401.092ZM343.616 426.231V427.231H344.09L344.391 426.864L343.616 426.231ZM310.48 426.231V425.231H310.268L310.075 425.317L310.48 426.231ZM282.078 438.801L281.673 439.716L282.078 439.895L282.482 439.716L282.078 438.801ZM253.675 426.231L254.08 425.317L253.852 425.216L253.603 425.234L253.675 426.231ZM221.328 428.588L220.611 429.285L220.936 429.619L221.401 429.586L221.328 428.588ZM197.66 404.234L198.377 403.537L198.212 403.368L197.989 403.29L197.66 404.234ZM166.102 393.236L165.143 393.522L165.29 394.012L165.773 394.18L166.102 393.236ZM157.423 364.168L158.381 363.882L158.297 363.598L158.071 363.406L157.423 364.168ZM130.599 341.385L129.602 341.31L129.563 341.818L129.951 342.147L130.599 341.385ZM132.966 309.961L133.963 310.036L133.982 309.775L133.872 309.539L132.966 309.961ZM117.976 277.75L117.098 277.272L116.856 277.715L117.069 278.172L117.976 277.75ZM132.966 250.254L133.844 250.733L133.984 250.475L133.963 250.182L132.966 250.254ZM130.599 217.258L129.956 216.492L129.565 216.821L129.601 217.33L130.599 217.258ZM155.845 196.047L156.489 196.812L156.729 196.61L156.811 196.307L155.845 196.047ZM164.524 163.836L164.223 162.883L163.701 163.048L163.558 163.576L164.524 163.836ZM196.871 153.623L197.172 154.577L197.429 154.496L197.61 154.296L196.871 153.623ZM219.75 128.484V127.484H219.308L219.011 127.811L219.75 128.484ZM277.344 119.056L277.714 118.127L277.536 118.056H277.344V119.056ZM308.902 131.626L308.532 132.555L308.71 132.626H308.902V131.626ZM404.365 194.475L403.403 194.748L403.786 196.1L404.938 195.295L404.365 194.475ZM430.401 306.818L430.59 305.836L429.4 305.607L429.401 306.818L430.401 306.818ZM430.401 337.457L431.082 338.189L431.401 337.893L431.401 337.457L430.401 337.457ZM406.732 359.454L406.051 358.722L405.854 358.905L405.775 359.164L406.732 359.454ZM396.476 393.236L396.712 394.207L397.267 394.073L397.432 393.526L396.476 393.236ZM364.129 401.092L363.893 400.12L363.566 400.199L363.354 400.459L364.129 401.092ZM343.616 426.231V427.231H344.091L344.391 426.864L343.616 426.231ZM310.48 426.231V425.231H310.269L310.075 425.317L310.48 426.231ZM282.078 438.801L281.673 439.716L282.078 439.895L282.482 439.716L282.078 438.801ZM253.675 426.231L254.08 425.317L253.852 425.216L253.603 425.234L253.675 426.231ZM197.66 404.234L198.488 404.794L199.216 403.718L197.989 403.29L197.66 404.234ZM166.102 393.236L165.143 393.522L165.29 394.012L165.773 394.18L166.102 393.236ZM157.423 364.168L158.381 363.882L158.297 363.598L158.071 363.406L157.423 364.168ZM130.599 341.385L129.602 341.31L129.563 341.818L129.951 342.147L130.599 341.385ZM132.966 309.961L133.963 310.036L133.982 309.775L133.872 309.539L132.966 309.961ZM117.976 277.75L117.098 277.272L116.856 277.715L117.069 278.172L117.976 277.75ZM132.966 250.254L133.844 250.733L134.505 249.52L133.147 249.27L132.966 250.254ZM282.266 2.79965L330.392 38.9379L331.593 37.3386L283.467 1.20035L282.266 2.79965ZM234.546 38.9425L283.461 2.8043L282.273 1.1957L233.358 37.3339L234.546 38.9425ZM173.726 22.6045L233.687 39.1024L234.217 37.1741L174.257 20.6762L173.726 22.6045ZM144.086 74.7811L174.855 22.145L173.128 21.1357L142.359 73.7718L144.086 74.7811ZM82.576 81.556L143.325 75.2711L143.119 73.2818L82.3702 79.5667L82.576 81.556ZM77.1563 142.726L83.468 80.6625L81.4782 80.4602L75.1666 142.524L77.1563 142.726ZM22.999 173.352L76.6477 143.499L75.6752 141.751L22.0265 171.604L22.999 173.352ZM40.0452 232.706L23.4772 172.214L21.5483 172.742L38.1163 233.235L40.0452 232.706ZM2.77021 278.388L39.8509 233.608L38.3105 232.333L1.22979 277.113L2.77021 278.388ZM39.8667 324.269L2.78596 277.132L1.21404 278.369L38.2948 325.505L39.8667 324.269ZM22.6859 386.438L40.0429 325.16L38.1186 324.615L20.7616 385.892L22.6859 386.438ZM75.8588 415.145L22.21 385.291L21.2375 387.039L74.8863 416.892L75.8588 415.145ZM83.4663 476.394L76.3657 415.902L74.3793 416.135L81.4799 476.627L83.4663 476.394ZM145.664 480.227L82.5476 475.513L82.3986 477.508L145.515 482.221L145.664 480.227ZM174.885 537.34L146.483 480.776L144.696 481.673L173.098 538.237L174.885 537.34ZM233.698 521.109L173.738 536.821L174.245 538.756L234.205 523.044L233.698 521.109ZM283.469 558.202L234.554 521.278L233.349 522.874L282.264 559.798L283.469 558.202ZM330.384 521.283L282.258 558.207L283.476 559.793L331.602 522.87L330.384 521.283ZM389.635 536.823L331.253 521.111L330.733 523.042L389.115 538.754L389.635 536.823ZM416.09 480.786L388.477 537.35L390.274 538.227L417.887 481.663L416.09 480.786ZM479.24 475.513L416.913 480.227L417.064 482.221L479.391 477.508L479.24 475.513ZM485.423 415.902L478.323 476.394L480.309 476.627L487.41 416.135L485.423 415.902ZM539.579 385.291L485.93 415.145L486.903 416.892L540.551 387.039L539.579 385.291ZM523.318 325.137L539.097 386.414L541.034 385.916L525.254 324.638L523.318 325.137ZM558.195 277.157L523.481 324.294L525.091 325.48L559.805 278.343L558.195 277.157ZM523.496 233.583L558.21 278.363L559.79 277.138L525.076 232.358L523.496 233.583ZM539.098 173.008L523.319 232.715L525.253 233.226L541.032 173.519L539.098 173.008ZM485.858 137.955L539.506 174.093L540.624 172.434L486.975 136.296L485.858 137.955ZM478.324 83.0481L485.425 137.255L487.408 136.996L480.307 82.7883L478.324 83.0481ZM417.602 72.904L479.14 83.9026L479.492 81.9338L417.954 70.9352L417.602 72.904ZM388.505 22.1322L416.907 72.4114L418.648 71.4278L390.246 21.1485L388.505 22.1322ZM331.265 39.1005L389.647 22.6027L389.103 20.678L330.721 37.1759L331.265 39.1005ZM277.003 118.116L250.968 127.544L251.649 129.424L277.684 119.997L277.003 118.116ZM309.272 130.697L277.714 118.127L276.974 119.985L308.532 132.555L309.272 130.697ZM342.827 130.626H308.902V132.626H342.827V130.626ZM364.071 152.941L343.558 130.944L342.095 132.308L362.608 154.305L364.071 152.941ZM395.988 162.883L363.641 152.67L363.039 154.577L395.386 164.79L395.988 162.883ZM405.327 194.203L396.649 163.564L394.724 164.109L403.403 194.748L405.327 194.203ZM431.059 216.506L405.024 193.723L403.707 195.228L429.742 218.011L431.059 216.506ZM427.449 250.373L431.393 217.377L429.408 217.139L425.463 250.135L427.449 250.373ZM442.324 277.272L427.334 249.775L425.578 250.733L440.568 278.229L442.324 277.272ZM431.335 307.173L442.381 278.106L440.511 277.395L429.466 306.463L431.335 307.173ZM431.401 337.457V306.818H429.401V337.457H431.401ZM407.413 360.187L431.081 338.189L429.72 336.724L406.051 358.722L407.413 360.187ZM397.432 393.526L407.689 359.745L405.775 359.164L395.519 392.945L397.432 393.526ZM364.365 402.063L396.712 394.207L396.24 392.264L363.893 400.12L364.365 402.063ZM344.391 426.864L364.903 401.724L363.354 400.459L342.841 425.599L344.391 426.864ZM310.48 427.231H343.616V425.231H310.48V427.231ZM282.482 439.716L310.885 427.146L310.075 425.317L281.673 437.887L282.482 439.716ZM253.271 427.146L281.673 439.716L282.482 437.887L254.08 425.317L253.271 427.146ZM221.401 429.586L253.748 427.229L253.603 425.234L221.256 427.591L221.401 429.586ZM196.943 404.931L220.611 429.285L222.045 427.891L198.377 403.537L196.943 404.931ZM165.773 394.18L197.331 405.178L197.989 403.29L166.431 392.291L165.773 394.18ZM156.465 364.454L165.143 393.522L167.06 392.949L158.381 363.882L156.465 364.454ZM129.951 342.147L156.776 364.93L158.071 363.406L131.246 340.623L129.951 342.147ZM131.968 309.885L129.602 341.31L131.596 341.46L133.963 310.036L131.968 309.885ZM117.069 278.172L132.059 310.382L133.872 309.539L118.882 277.328L117.069 278.172ZM132.088 249.775L117.098 277.272L118.854 278.229L133.844 250.733L132.088 249.775ZM129.601 217.33L131.968 250.325L133.963 250.182L131.596 217.187L129.601 217.33ZM155.202 195.281L129.956 216.492L131.242 218.024L156.489 196.812L155.202 195.281ZM163.558 163.576L154.88 195.786L156.811 196.307L165.489 164.097L163.558 163.576ZM196.57 152.67L164.223 162.883L164.825 164.79L197.172 154.577L196.57 152.67ZM219.011 127.811L196.131 152.95L197.61 154.296L220.49 129.157L219.011 127.811ZM251.308 127.484H219.75V129.484H251.308V127.484ZM252.291 128.295L234.934 37.9496L232.97 38.3269L250.327 128.672L252.291 128.295ZM277.344 120.056H277.344V118.056H277.344V120.056ZM276.974 119.985L308.532 132.555L309.272 130.697L277.714 118.127L276.974 119.985ZM309.875 131.856L331.966 38.3682L330.02 37.9083L307.929 131.396L309.875 131.856ZM308.902 132.626H342.827V130.626H308.902V132.626ZM364.172 154.178L418.61 72.4741L416.945 71.3651L362.507 153.069L364.172 154.178ZM394.724 164.109L403.403 194.748L405.327 194.203L396.649 163.564L394.724 164.109ZM429.401 306.818L429.401 337.457L431.401 337.457L431.401 306.818L429.401 306.818ZM429.72 336.724L406.051 358.722L407.413 360.187L431.082 338.189L429.72 336.724ZM405.775 359.164L395.519 392.945L397.432 393.526L407.689 359.745L405.775 359.164ZM396.24 392.264L363.893 400.12L364.365 402.063L396.712 394.207L396.24 392.264ZM363.354 400.459L342.841 425.599L344.391 426.864L364.903 401.724L363.354 400.459ZM343.616 425.231H310.48V427.231H343.616V425.231ZM310.075 425.317L281.673 437.887L282.482 439.716L310.885 427.146L310.075 425.317ZM282.482 437.887L254.08 425.317L253.271 427.146L281.673 439.716L282.482 437.887ZM253.603 425.234L221.256 427.591L221.401 429.586L253.748 427.229L253.603 425.234ZM197.989 403.29L166.431 392.291L165.773 394.18L197.331 405.178L197.989 403.29ZM167.06 392.949L158.381 363.882L156.465 364.454L165.143 393.522L167.06 392.949ZM158.071 363.406L131.246 340.623L129.951 342.147L156.776 364.93L158.071 363.406ZM131.596 341.46L133.963 310.036L131.968 309.885L129.602 341.31L131.596 341.46ZM133.872 309.539L118.882 277.328L117.069 278.172L132.059 310.382L133.872 309.539ZM118.854 278.229L133.844 250.733L132.088 249.775L117.098 277.272L118.854 278.229ZM219.751 129.484H251.308V127.484H219.751V129.484ZM142.394 74.8366L196.043 154.183L197.699 153.063L144.051 73.7163L142.394 74.8366ZM75.6046 143.455L155.288 196.877L156.402 195.216L76.7183 141.794L75.6046 143.455ZM38.8997 233.954L132.785 251.237L133.147 249.27L39.2618 231.987L38.8997 233.954ZM39.2378 325.875L133.123 310.948L132.809 308.973L38.9237 323.9L39.2378 325.875ZM75.9067 416.864L157.957 365.013L156.889 363.322L74.8383 415.173L75.9067 416.864ZM146.418 481.784L198.488 404.794L196.831 403.674L144.761 480.664L146.418 481.784ZM234.931 522.278L254.655 426.433L252.696 426.03L232.972 521.875L234.931 522.278ZM331.971 521.867L311.458 426.022L309.502 426.441L330.015 522.285L331.971 521.867ZM417.823 480.674L364.963 400.541L363.294 401.642L416.154 481.775L417.823 480.674ZM486.995 415.203L407.311 358.639L406.153 360.27L485.838 416.834L486.995 415.203ZM524.475 323.905L430.59 305.836L430.212 307.8L524.097 325.869L524.475 323.905ZM524.112 231.986L426.282 249.269L426.63 251.239L524.46 233.955L524.112 231.986ZM485.844 136.306L403.792 193.656L404.938 195.295L486.989 137.945L485.844 136.306Z" fill="#0E1F17"/>
<path d="M412.333 279.321C412.333 351.813 353.315 410.59 280.5 410.59C207.685 410.59 148.667 351.813 148.667 279.321C148.667 206.83 207.685 148.053 280.5 148.053C353.315 148.053 412.333 206.83 412.333 279.321Z" stroke="#3C8563" stroke-width="3"/>
<path d="M402.866 280.107C402.866 347.844 348.422 402.734 281.289 402.734C214.157 402.734 159.713 347.844 159.713 280.107C159.713 212.37 214.157 157.48 281.289 157.48C348.422 157.48 402.866 212.37 402.866 280.107Z" stroke="#3C8563" stroke-width="3"/>
<path d="M388.665 280.107C388.665 340.026 340.234 388.593 280.5 388.593C220.767 388.593 172.336 340.026 172.336 280.107C172.336 220.188 220.767 171.621 280.5 171.621C340.234 171.621 388.665 220.188 388.665 280.107Z" stroke="#3C8563" stroke-width="3"/>
<path d="M241.627 208.332L211.735 111.369L259.298 201.061L241.627 208.332Z" fill="#3C8563" stroke="#0E1F17"/>
<path d="M217.739 228.878L152.891 150.67L231.274 215.433L217.739 228.878Z" fill="#3C8563" stroke="#0E1F17"/>
<path d="M199.992 258.929L110.997 209.616L207.679 241.499L199.992 258.929Z" fill="#3C8563" stroke="#0E1F17"/>
<path d="M200.409 288.938L98.9506 280.142L200.272 269.902L200.409 288.938Z" fill="#3C8563" stroke="#0E1F17"/>
<path d="M361.733 288.938L463.191 280.142L361.869 269.902L361.733 288.938Z" fill="#3C8563" stroke="#0E1F17"/>
<path d="M271.502 199.56L280.376 98.5141L290.623 199.431L271.502 199.56Z" fill="#3C8563" stroke="#0E1F17"/>
<path d="M303.685 201.458L347.694 109.984L321.629 208.036L303.685 201.458Z" fill="#3C8563" stroke="#0E1F17"/>
<path d="M333.023 215.668L409.765 148.984L346.891 228.774L333.023 215.668Z" fill="#3C8563" stroke="#0E1F17"/>
<path d="M352.324 238.704L450.77 212.723L358.934 256.567L352.324 238.704Z" fill="#3C8563" stroke="#0E1F17"/>
<path d="M241.627 351.859L211.735 448.822L259.298 359.13L241.627 351.859Z" fill="#3C8563" stroke="#0E1F17"/>
<path d="M217.739 331.313L152.891 409.521L231.274 344.759L217.739 331.313Z" fill="#3C8563" stroke="#0E1F17"/>
<path d="M199.992 301.262L110.997 350.575L207.679 318.693L199.992 301.262Z" fill="#3C8563" stroke="#0E1F17"/>
<path d="M271.502 360.631L280.376 461.677L290.623 360.76L271.502 360.631Z" fill="#3C8563" stroke="#0E1F17"/>
<path d="M303.685 358.733L347.694 450.207L321.629 352.155L303.685 358.733Z" fill="#3C8563" stroke="#0E1F17"/>
<path d="M333.023 344.524L409.765 411.208L346.891 331.417L333.023 344.524Z" fill="#3C8563" stroke="#0E1F17"/>
<path d="M352.324 321.487L450.77 347.468L358.934 303.624L352.324 321.487Z" fill="#3C8563" stroke="#0E1F17"/>
<defs>
<linearGradient id="paint0_linear_554_3290" x1="485" y1="130" x2="87" y2="476" gradientUnits="userSpaceOnUse">
<stop offset="0.5889" stop-color="#3C8563"/>
<stop offset="0.589" stop-color="#C3ECE0"/>
</linearGradient>
</defs>
</svg>
