<svg width="557" height="557" viewBox="0 0 557 557" fill="none" xmlns="http://www.w3.org/2000/svg">
<circle cx="278.5" cy="278.5" r="271.098" stroke="#3C8563" stroke-width="14.804"/>
<path d="M423.68 159.219C381.261 106.615 368.089 93.3686 344.343 77.0181V25.8985C367.146 22.8035 374.356 26.9004 388.51 32.8507C445.692 53.3265 467.848 79.0629 505.063 130.592C509.427 148.405 511.251 158.376 508.743 175.986C483.52 162.535 463.758 159.219 423.68 159.219Z" fill="#3C8563"/>
<path d="M330.029 78.654C283.255 90.6543 266.417 99.7468 233.106 121.186C181.986 93.7854 137.839 106.458 132.503 99.1018C134.318 77.8962 141.091 66.3853 143.953 44.7105C174.455 24.6488 190.858 22.1125 221.655 15.2656C262.329 8.98842 319.805 1.36095 336.163 25.8985C340.662 45.5284 344.343 67.6121 330.029 78.654Z" fill="#3C8563"/>
<path d="M245.375 234.467C238.423 196.843 233.029 171.672 233.106 130.592C215.521 113.125 173.284 105.984 132.503 107.69C101.831 124.866 85.4361 147.313 54.8007 196.025C56.9971 245.012 60.1981 270.129 74.4307 304.807L160.721 326.891L245.375 234.467Z" fill="#3C8563"/>
<path d="M367.244 259.004L254.372 241.828C228.199 256.141 193.028 295.401 170.127 331.39L204.07 434.447C249.827 452.581 276.128 457.985 323.895 461.029C365.531 425.258 382.924 406.975 404.459 377.193C404.219 332.73 392.396 303.642 367.244 259.004Z" fill="#3C8563"/>
<path d="M421.635 171.896C408.792 206.892 396.444 225.978 375.423 259.004C398.734 299.491 406.093 330.394 415.092 377.193L491.158 383.327C520.194 349.384 531.726 330.407 541.46 285.177C535.801 241.178 530.009 213.61 502.2 179.666C472.346 159.219 442.492 159.54 421.635 171.896Z" fill="#3C8563"/>
<path d="M495.657 388.644C520.444 359.846 529.966 336.978 547.594 297.037C544.323 362.061 522.99 406.39 476.027 462.665C485.875 433.338 492.764 415.62 495.657 388.644Z" fill="#3C8563"/>
<path d="M275.638 548.137C321.789 542.066 360.701 530.392 361.928 518.283C351.004 508.282 346.876 502.403 341.071 491.701C334.892 483.288 331.514 478.527 323.895 470.844C318.585 469.161 288.724 465.761 258.87 458.575C238.021 453.557 216.734 444.542 199.572 440.581C178.723 456.743 164.934 465.059 139.046 479.432C153.751 502.29 165.508 513.878 189.757 533.415C222.312 544.189 241.023 547.92 275.638 548.137Z" fill="#3C8563"/>
<path d="M77.7023 458.575C110.382 490.339 132.585 505.466 164.81 522.373C140.623 493.289 121.446 471.425 99.9204 447.942C79.7471 431.584 69.5232 416.453 51.938 394.778C48.9628 389.455 40.9159 387.047 31.0812 386.599C45.6347 413.951 54.7479 429.482 77.7023 458.575Z" fill="#3C8563"/>
<path d="M48.6663 380.056C56.9528 350.447 58.4813 337.933 66.2515 309.306C54.8007 267.183 50.8505 240.511 48.6663 196.025C39.7866 189.771 35.3362 184.822 22.902 188.255C14.0036 227.895 10.6212 249.42 10.6333 285.177C11.3183 322.733 14.1472 342.154 28.2185 371.467C34.2546 377.723 37.3172 384.75 48.6663 380.056Z" fill="#3C8563"/>
<path d="M343.934 539.549C384.011 517.056 407.62 507.89 444.946 490.883C430.291 502.407 418.88 509.455 396.689 522.373C372.175 533.087 362.24 535.195 343.934 539.549Z" fill="#3C8563"/>
</svg>
