<svg width="227" height="145" viewBox="0 0 227 145" fill="none" xmlns="http://www.w3.org/2000/svg">
<path d="M129.024 29.2971V53.6516C129.024 56.4127 128.934 58.3559 128.754 59.4813C128.574 60.5918 128.041 61.7397 127.156 62.9252C126.27 64.0956 125.1 64.9885 123.644 65.6037C122.204 66.2039 120.501 66.5041 118.535 66.5041C116.359 66.5041 114.438 66.1439 112.773 65.4236C111.107 64.7034 109.862 63.7655 109.036 62.6101C108.211 61.4546 107.723 60.2391 107.573 58.9636C107.423 57.6731 107.348 54.9721 107.348 50.8605V29.2971H116.824V56.6227C116.824 58.2134 116.907 59.2337 117.072 59.6839C117.252 60.1191 117.605 60.3367 118.13 60.3367C118.73 60.3367 119.113 60.0966 119.278 59.6164C119.458 59.1212 119.548 57.9658 119.548 56.1501V29.2971H129.024ZM132.693 29.2971H139.401C143.872 29.2971 146.896 29.4697 148.472 29.8148C150.062 30.16 151.353 31.0453 152.343 32.4709C153.348 33.8814 153.851 36.1398 153.851 39.246C153.851 42.0821 153.498 43.9878 152.793 44.9632C152.088 45.9386 150.7 46.5238 148.629 46.7189C150.505 47.1841 151.765 47.8068 152.411 48.5871C153.056 49.3674 153.453 50.0877 153.604 50.748C153.769 51.3932 153.851 53.1864 153.851 56.1275V65.7388H145.05V53.6291C145.05 51.6783 144.893 50.4703 144.578 50.0052C144.277 49.54 143.475 49.3074 142.169 49.3074V65.7388H132.693V29.2971ZM142.169 35.5321V43.6352C143.235 43.6352 143.977 43.4926 144.397 43.2075C144.833 42.9074 145.05 41.9545 145.05 40.3489V38.3456C145.05 37.1902 144.84 36.4324 144.42 36.0723C144.015 35.7121 143.265 35.5321 142.169 35.5321ZM157.543 29.2971H173.591V36.59H167.019V43.5001H172.871V50.4328H167.019V65.7388H157.543V29.2971Z" fill="white"/>
<path d="M50.7532 37.3753L67.1757 33.5523L68.572 34.8488C65.623 35.5698 64.3439 36.0367 60.7264 36.8767C59.5423 37.2701 57.5125 37.6543 54.3103 38.3394C52.1447 38.306 50.6172 38.3195 50.5205 38.0734L50.7532 37.3753Z" fill="#3C8563"/>
<path d="M52.0498 41.83C51.2973 40.5953 50.9078 39.8953 50.5205 38.5721H55.9393L69.4363 35.148C69.924 35.2357 70.0222 35.3182 69.9017 35.5137L66.1452 40.0348C59.4639 41.6879 53.8117 42.6278 52.0498 41.83Z" fill="#3C8563"/>
<path d="M66.7435 28.7652L68.1065 29.7957C68.4783 31.5029 68.6717 31.9566 69.1371 33.7185L68.9709 33.9512L68.6052 33.7185L68.5681 33.6822C68.0309 33.1575 67.7185 32.8523 67.7409 32.555L67.1757 31.7903L66.7435 28.7652Z" fill="#3C8563"/>
<path d="M67.8406 28.8649L67.4417 27.3357L66.7435 27.103L66.3779 27.4022L66.4776 27.9673L67.8406 28.8649Z" fill="#3C8563"/>
<path d="M66.7435 26.4713L67.7409 26.6708C67.1757 24.1443 74.5891 21.4183 78.1462 22.9807C77.5146 21.8172 75.8856 19.7228 73.2926 19.7228C69.9017 19.5898 67.7709 21.258 67.1757 22.5818C66.5805 23.9055 66.6372 24.8264 66.7435 26.4713Z" fill="#3C8563"/>
<path d="M69.0374 25.3078C68.117 26.4636 68.1562 26.7489 68.1065 27.3357C69.0374 23.6123 77.5146 23.3463 77.6475 25.1748L78.8111 25.5737L78.0132 23.7453C76.613 22.5818 70.7661 23.3463 69.0374 25.3078Z" fill="#3C8563"/>
<path d="M79.6089 24.3105H78.9441L79.2432 25.1748L79.9746 25.7732L79.6089 24.3105Z" fill="#3C8563"/>
<path d="M76.75 25.0086C71.9296 24.9492 70.3107 26.4729 68.6717 27.9673C68.7524 27.3961 68.812 27.0748 69.3033 26.4713C70.8827 24.5663 73.4256 24.7093 76.1848 24.7093L76.75 25.0086Z" fill="#3C8563"/>
<path d="M69.4363 28.2333L68.8712 28.7652C69.0953 29.6699 69.4116 30.1609 70.1012 31.0257L71.032 30.1614L69.4363 28.2333Z" fill="#3C8563"/>
<path d="M71.3977 26.6708L69.9017 27.6681L71.3977 29.7957L72.8937 28.9979C72.6049 28.0986 72.348 27.5912 71.3977 26.6708Z" fill="#3C8563"/>
<path d="M75.7194 25.5737C74.2283 25.5737 73.4157 25.6811 72.0958 26.4713L73.5918 28.7652L76.0186 28.3995L75.7194 25.5737Z" fill="#3C8563"/>
<path d="M77.2819 25.7732L76.3178 25.5737L76.5837 28.3995L78.0797 28.6654L77.2819 25.7732Z" fill="#3C8563"/>
<path d="M79.2432 29.1973L78.8111 26.2054L78.0132 26.0392L78.6449 28.9979L79.2432 29.1973Z" fill="#3C8563"/>
<path d="M79.9746 26.837L79.6089 26.4713L79.8416 29.4965L80.5398 29.9952L79.9746 26.837Z" fill="#3C8563"/>
<path d="M69.1371 31.8901L69.6358 31.4579L68.6717 30.1614L69.1371 31.8901Z" fill="#3C8563"/>
<path d="M69.4363 32.4552L70.1012 31.8901L71.9296 33.4193L69.6358 33.2863L69.4363 32.4552Z" fill="#3C8563"/>
<path d="M73.0931 29.4965C71.9826 30.1774 71.3817 30.578 70.5001 31.4579C71.4876 32.5597 72.2119 32.9333 73.7248 33.2863C73.7335 32.1311 73.6614 31.3855 73.0931 29.4965Z" fill="#3C8563"/>
<path d="M76.1848 28.9979L73.7248 29.1973L74.4229 33.1533C75.5728 33.0131 76.1625 32.8635 77.1821 32.555L76.1848 28.9979Z" fill="#3C8563"/>
<path d="M78.0797 29.3635L76.8497 29.0976C77.0273 30.311 77.2312 30.9553 77.7805 32.0563C78.051 31.0604 78.1678 30.4895 78.0797 29.3635Z" fill="#3C8563"/>
<path d="M80.5398 30.7265L78.8111 29.4965L78.3457 32.289C79.6633 31.7095 80.1144 31.3649 80.5398 30.7265Z" fill="#3C8563"/>
<path d="M69.5693 34.2836L69.6358 33.918L70.5666 34.5496L69.5693 34.2836Z" fill="#3C8563"/>
<path d="M74.7553 33.8847L70.5666 33.918L72.262 34.616H74.8551C76.5656 34.0814 77.0279 33.7823 77.7805 32.9871L74.7553 33.8847Z" fill="#3C8563"/>
<path d="M78.4454 35.3807L78.1794 33.5523L76.0851 34.8155L78.4454 35.3807Z" fill="#3C8563"/>
<path d="M79.4427 35.7796L79.1103 33.5523L80.8057 32.3887L81.4041 30.2944L81.7033 30.1614L83.9971 34.5496C82.327 35.2431 80.1408 36.0788 79.4427 35.7796Z" fill="#3C8563"/>
<path d="M84.4625 33.1201L83.4985 30.926L82.5011 30.7265L83.9971 33.3861L84.4625 33.1201Z" fill="#3C8563"/>
<path d="M84.9612 32.8874C84.3883 32.0587 84.1121 31.5907 84.0636 30.7265L85.6593 30.2944L86.8228 32.0563L84.9612 32.8874Z" fill="#3C8563"/>
<path d="M87.255 32.9871L87.6539 32.3887L88.751 33.1201L88.4518 34.0509L87.255 32.9871Z" fill="#3C8563"/>
<path d="M79.9746 36.9763C77.1906 35.7578 72.6609 34.7157 70.0347 36.3114C68.2382 37.5582 67.7353 38.3435 67.1757 39.802C66.669 41.4654 67.2896 42.9953 68.3392 45.6862L69.1703 50.7725L71.2647 55.6594L72.6277 60.3467C73.1472 59.7316 73.4966 59.2084 74.3896 57.4545V53.3323L72.7939 54.9945C72.9478 54.6207 73.2707 53.8746 74.3896 52.5344C74.2606 50.1697 73.8876 48.942 73.0266 46.8165C72.0037 48.0058 71.5972 48.5119 71.3312 48.4122C71.0653 48.6117 74.4561 43.4256 75.1542 43.4921L73.3258 46.2846C73.6836 46.3747 73.9062 46.521 74.5891 46.0519C76.2991 46.3161 77.2173 46.261 78.4454 45.6862L80.7392 36.8433L79.9746 36.9763Z" fill="#3C8563"/>
<path d="M79.6754 43.0267L81.3376 36.8433L85.2604 36.5774L87.7204 35.8128L89.2496 34.7157L89.6485 33.386C91.1778 31.1586 93.1392 31.0256 93.8705 33.386L93.4716 37.7077C93.1913 39.7924 92.8748 40.6048 91.8094 40.9323L89.2496 41.8631L84.8282 42.794L79.6754 43.0267Z" fill="#3C8563"/>
<path d="M89.0169 32.7543L89.2496 31.4911L88.0528 31.3248L85.8587 28.898L87.7204 31.4911L89.0169 32.7543Z" fill="#3C8563"/>
<path d="M93.4716 28.1999V28.4991L89.6485 30.7929C89.3293 31.0247 89.0912 31.1068 88.3853 31.0256C87.2915 29.6492 86.6851 28.8719 85.626 27.4685C85.5825 26.9517 86.0161 26.7967 86.9226 26.6374C87.4925 25.6194 87.9157 25.5554 88.7177 25.6734C89.7815 24.1774 91.3411 24.7317 91.9756 24.9088C92.7675 24.1006 93.082 24.0482 93.5713 24.1774L93.0727 26.4048C90.939 27.0191 90.0807 27.1694 88.3853 28.3329C86.6195 29.687 89.3368 27.7345 92.9729 27.0031C93.1411 27.0705 93.1735 27.3184 93.2389 27.7345L89.8813 29.6626L93.4716 28.1999Z" fill="#3C8563"/>
<path d="M94.203 30.7929C94.1169 30.0921 94.0455 29.7044 93.7043 29.0642C92.9466 29.2357 92.5255 29.4532 91.7762 29.8953L94.203 30.7929Z" fill="#3C8563"/>
<path d="M93.9703 32.3554C92.8732 31.0256 91.6099 30.3608 89.5488 32.7543C89.4823 30.1946 93.2389 29.6626 93.9703 31.4911V32.3554Z" fill="#3C8563"/>
<path d="M95.8319 29.4964L94.0035 26.8037L94.9676 29.8953V32.0562L95.6989 32.987L96.3306 32.8873L96.53 32.5549L101.184 32.4551C101.708 31.7002 101.637 31.2687 101.284 30.4937L101.018 28.898L97.8598 29.8953L98.4914 31.0256H98.2255L96.5965 29.6626L95.8319 29.4964Z" fill="#3C8563"/>
<path d="M94.4357 24.5763C94.1315 25.1889 94.0548 25.5666 94.0035 26.2718L94.6351 26.6374L95.6989 28.1999C95.6989 27.4021 95.491 27.0181 95.3 26.2718L95.6989 24.5763H94.4357Z" fill="#3C8563"/>
<path d="M97.3611 27.7345L96.796 24.5763C96.3736 24.5212 96.1512 24.5986 95.8319 25.3077C95.7452 26.0826 95.8657 26.5471 96.2308 27.4021V28.0669C96.8097 28.3088 97.0732 28.1056 97.3611 27.7345Z" fill="#3C8563"/>
<path d="M97.7268 27.0031L97.3611 24.5763C97.9755 23.6547 98.9569 24.4101 99.4222 25.208L99.5553 25.7066L99.0898 25.208L98.6244 25.3077C98.7632 26.3546 98.734 26.5848 98.6244 26.8037C98.3545 27.0745 98.1867 27.1864 97.7268 27.0031Z" fill="#3C8563"/>
<path d="M99.0898 27.0031L98.4914 27.6015H97.8598L97.7268 28.1999L95.9981 28.4991C95.944 28.6514 95.9848 28.7706 96.2308 29.0642L96.796 29.2637C97.5247 29.4368 97.809 29.4076 98.2255 29.2637L102.281 28.0669C101.999 27.1918 101.85 26.5729 101.417 26.172L99.0898 27.0031Z" fill="#3C8563"/>
<path d="M97.0287 34.6825L96.929 32.987H100.553V34.1173L97.0287 34.6825Z" fill="#3C8563"/>
<path d="M96.5965 35.2144L96.3306 33.386L96.2308 35.2144H96.5965Z" fill="#3C8563"/>
<path d="M100.553 34.8819V34.5495L97.0287 35.3473C98.4015 35.3581 99.172 35.277 100.553 34.8819Z" fill="#3C8563"/>
<path d="M96.3306 35.8128L100.453 35.3473L100.021 44.157L99.1563 47.9468C98.8904 48.2127 99.4223 52.1023 95.433 51.3709C93.0112 51.1352 91.6519 50.9962 89.0502 50.0411L88.3188 47.5478C88.7772 45.2907 89.2357 44.2336 90.3799 42.6942C91.4724 43.3244 91.9618 43.6966 92.574 44.3897L94.6019 46.5173L92.9729 43.8578L95.9316 38.1066L96.6963 39.2701L96.3306 35.8128Z" fill="#3C8563"/>
<path d="M88.0196 46.0519L89.5488 42.6942L87.122 43.2594L88.0196 46.0519Z" fill="#3C8563"/>
<path d="M86.1247 43.2594C83.0416 43.8938 81.7314 43.9225 79.5424 43.8578L79.0903 46.1483C79.0625 46.2892 78.9475 46.3962 78.805 46.4139L75.5532 46.8165C74.9456 46.6934 74.57 46.6897 73.8245 46.8165L74.9215 51.5371C76.6043 48.3276 76.9097 47.9084 76.9826 48.1795L75.1542 52.5344L74.9725 57.3216C76.6585 55.2164 77.4148 52.0358 78.0464 50.972C77.0045 54.0721 76.9525 56.0521 74.5891 58.5516C72.8444 61.3009 72.395 62.8068 73.0266 65.9982L83.1328 65.8652C84.1155 65.9487 84.5275 65.4557 84.8282 64.602C85.5345 61.9452 85.8037 60.7198 85.8587 58.5516C86.0609 60.4195 86.5348 60.9156 84.8282 65.699H90.6459L91.0448 64.602L90.4797 63.5714C89.7816 56.7564 88.2023 49.4094 86.1247 43.2594Z" fill="#3C8563"/>
<path d="M87.3548 52.0284C87.2884 56.1825 87.3178 58.373 86.8228 62.201C87.8534 60.5388 88.1858 54.4552 87.3548 52.0284Z" fill="#3C8563"/>
<path d="M50.7532 37.3753L67.1757 33.5523L68.572 34.8488C65.623 35.5698 64.3439 36.0367 60.7264 36.8767C59.5423 37.2701 57.5125 37.6543 54.3103 38.3394C52.1447 38.306 50.6172 38.3195 50.5205 38.0734L50.7532 37.3753Z" stroke="white" stroke-width="0.0664878"/>
<path d="M52.0498 41.83C51.2973 40.5953 50.9078 39.8953 50.5205 38.5721H55.9393L69.4363 35.148C69.924 35.2357 70.0222 35.3182 69.9017 35.5137L66.1452 40.0348C59.4639 41.6879 53.8117 42.6278 52.0498 41.83Z" stroke="white" stroke-width="0.0664878"/>
<path d="M66.7435 28.7652L68.1065 29.7957C68.4783 31.5029 68.6717 31.9566 69.1371 33.7185L68.9709 33.9512L68.6052 33.7185L68.5681 33.6822C68.0309 33.1575 67.7185 32.8523 67.7409 32.555L67.1757 31.7903L66.7435 28.7652Z" stroke="white" stroke-width="0.0664878"/>
<path d="M67.8406 28.8649L67.4417 27.3357L66.7435 27.103L66.3779 27.4022L66.4776 27.9673L67.8406 28.8649Z" stroke="white" stroke-width="0.0664878"/>
<path d="M66.7435 26.4713L67.7409 26.6708C67.1757 24.1443 74.5891 21.4183 78.1462 22.9807C77.5146 21.8172 75.8856 19.7228 73.2926 19.7228C69.9017 19.5898 67.7709 21.258 67.1757 22.5818C66.5805 23.9055 66.6372 24.8264 66.7435 26.4713Z" stroke="white" stroke-width="0.0664878"/>
<path d="M69.0374 25.3078C68.117 26.4636 68.1562 26.7489 68.1065 27.3357C69.0374 23.6123 77.5146 23.3463 77.6475 25.1748L78.8111 25.5737L78.0132 23.7453C76.613 22.5818 70.7661 23.3463 69.0374 25.3078Z" stroke="white" stroke-width="0.0664878"/>
<path d="M79.6089 24.3105H78.9441L79.2432 25.1748L79.9746 25.7732L79.6089 24.3105Z" stroke="white" stroke-width="0.0664878"/>
<path d="M76.75 25.0086C71.9296 24.9492 70.3107 26.4729 68.6717 27.9673C68.7524 27.3961 68.812 27.0748 69.3033 26.4713C70.8827 24.5663 73.4256 24.7093 76.1848 24.7093L76.75 25.0086Z" stroke="white" stroke-width="0.0664878"/>
<path d="M69.4363 28.2333L68.8712 28.7652C69.0953 29.6699 69.4116 30.1609 70.1012 31.0257L71.032 30.1614L69.4363 28.2333Z" stroke="white" stroke-width="0.0664878"/>
<path d="M71.3977 26.6708L69.9017 27.6681L71.3977 29.7957L72.8937 28.9979C72.6049 28.0986 72.348 27.5912 71.3977 26.6708Z" stroke="white" stroke-width="0.0664878"/>
<path d="M75.7194 25.5737C74.2283 25.5737 73.4157 25.6811 72.0958 26.4713L73.5918 28.7652L76.0186 28.3995L75.7194 25.5737Z" stroke="white" stroke-width="0.0664878"/>
<path d="M77.2819 25.7732L76.3178 25.5737L76.5837 28.3995L78.0797 28.6654L77.2819 25.7732Z" stroke="white" stroke-width="0.0664878"/>
<path d="M79.2432 29.1973L78.8111 26.2054L78.0132 26.0392L78.6449 28.9979L79.2432 29.1973Z" stroke="white" stroke-width="0.0664878"/>
<path d="M79.9746 26.837L79.6089 26.4713L79.8416 29.4965L80.5398 29.9952L79.9746 26.837Z" stroke="white" stroke-width="0.0664878"/>
<path d="M69.1371 31.8901L69.6358 31.4579L68.6717 30.1614L69.1371 31.8901Z" stroke="white" stroke-width="0.0664878"/>
<path d="M69.4363 32.4552L70.1012 31.8901L71.9296 33.4193L69.6358 33.2863L69.4363 32.4552Z" stroke="white" stroke-width="0.0664878"/>
<path d="M73.0931 29.4965C71.9826 30.1774 71.3817 30.578 70.5001 31.4579C71.4876 32.5597 72.2119 32.9333 73.7248 33.2863C73.7335 32.1311 73.6614 31.3855 73.0931 29.4965Z" stroke="white" stroke-width="0.0664878"/>
<path d="M76.1848 28.9979L73.7248 29.1973L74.4229 33.1533C75.5728 33.0131 76.1625 32.8635 77.1821 32.555L76.1848 28.9979Z" stroke="white" stroke-width="0.0664878"/>
<path d="M78.0797 29.3635L76.8497 29.0976C77.0273 30.311 77.2312 30.9553 77.7805 32.0563C78.051 31.0604 78.1678 30.4895 78.0797 29.3635Z" stroke="white" stroke-width="0.0664878"/>
<path d="M80.5398 30.7265L78.8111 29.4965L78.3457 32.289C79.6633 31.7095 80.1144 31.3649 80.5398 30.7265Z" stroke="white" stroke-width="0.0664878"/>
<path d="M69.5693 34.2836L69.6358 33.918L70.5666 34.5496L69.5693 34.2836Z" stroke="white" stroke-width="0.0664878"/>
<path d="M74.7553 33.8847L70.5666 33.918L72.262 34.616H74.8551C76.5656 34.0814 77.0279 33.7823 77.7805 32.9871L74.7553 33.8847Z" stroke="white" stroke-width="0.0664878"/>
<path d="M78.4454 35.3807L78.1794 33.5523L76.0851 34.8155L78.4454 35.3807Z" stroke="white" stroke-width="0.0664878"/>
<path d="M79.4427 35.7796L79.1103 33.5523L80.8057 32.3887L81.4041 30.2944L81.7033 30.1614L83.9971 34.5496C82.327 35.2431 80.1408 36.0788 79.4427 35.7796Z" stroke="white" stroke-width="0.0664878"/>
<path d="M84.4625 33.1201L83.4985 30.926L82.5011 30.7265L83.9971 33.3861L84.4625 33.1201Z" stroke="white" stroke-width="0.0664878"/>
<path d="M84.9612 32.8874C84.3883 32.0587 84.1121 31.5907 84.0636 30.7265L85.6593 30.2944L86.8228 32.0563L84.9612 32.8874Z" stroke="white" stroke-width="0.0664878"/>
<path d="M87.255 32.9871L87.6539 32.3887L88.751 33.1201L88.4518 34.0509L87.255 32.9871Z" stroke="white" stroke-width="0.0664878"/>
<path d="M79.9746 36.9763C77.1906 35.7578 72.6609 34.7157 70.0347 36.3114C68.2382 37.5582 67.7353 38.3435 67.1757 39.802C66.669 41.4654 67.2896 42.9953 68.3392 45.6862L69.1703 50.7725L71.2647 55.6594L72.6277 60.3467C73.1472 59.7316 73.4966 59.2084 74.3896 57.4545V53.3323L72.7939 54.9945C72.9478 54.6207 73.2707 53.8746 74.3896 52.5344C74.2606 50.1697 73.8876 48.942 73.0266 46.8165C72.0037 48.0058 71.5972 48.5119 71.3312 48.4122C71.0653 48.6117 74.4561 43.4256 75.1542 43.4921L73.3258 46.2846C73.6836 46.3747 73.9062 46.521 74.5891 46.0519C76.2991 46.3161 77.2173 46.261 78.4454 45.6862L80.7392 36.8433L79.9746 36.9763Z" stroke="white" stroke-width="0.0664878"/>
<path d="M79.6754 43.0267L81.3376 36.8433L85.2604 36.5774L87.7204 35.8128L89.2496 34.7157L89.6485 33.386C91.1778 31.1586 93.1392 31.0256 93.8705 33.386L93.4716 37.7077C93.1913 39.7924 92.8748 40.6048 91.8094 40.9323L89.2496 41.8631L84.8282 42.794L79.6754 43.0267Z" stroke="white" stroke-width="0.0664878"/>
<path d="M89.0169 32.7543L89.2496 31.4911L88.0528 31.3248L85.8587 28.898L87.7204 31.4911L89.0169 32.7543Z" stroke="white" stroke-width="0.0664878"/>
<path d="M93.4716 28.1999V28.4991L89.6485 30.7929C89.3293 31.0247 89.0912 31.1068 88.3853 31.0256C87.2915 29.6492 86.6851 28.8719 85.626 27.4685C85.5825 26.9517 86.0161 26.7967 86.9226 26.6374C87.4925 25.6194 87.9157 25.5554 88.7177 25.6734C89.7815 24.1774 91.3411 24.7317 91.9756 24.9088C92.7675 24.1006 93.082 24.0482 93.5713 24.1774L93.0727 26.4048C90.939 27.0191 90.0807 27.1694 88.3853 28.3329C86.6195 29.687 89.3368 27.7345 92.9729 27.0031C93.1411 27.0705 93.1735 27.3184 93.2389 27.7345L89.8813 29.6626L93.4716 28.1999Z" stroke="white" stroke-width="0.0664878"/>
<path d="M94.203 30.7929C94.1169 30.0921 94.0455 29.7044 93.7043 29.0642C92.9466 29.2357 92.5255 29.4532 91.7762 29.8953L94.203 30.7929Z" stroke="white" stroke-width="0.0664878"/>
<path d="M93.9703 32.3554C92.8732 31.0256 91.6099 30.3608 89.5488 32.7543C89.4823 30.1946 93.2389 29.6626 93.9703 31.4911V32.3554Z" stroke="white" stroke-width="0.0664878"/>
<path d="M95.8319 29.4964L94.0035 26.8037L94.9676 29.8953V32.0562L95.6989 32.987L96.3306 32.8873L96.53 32.5549L101.184 32.4551C101.708 31.7002 101.637 31.2687 101.284 30.4937L101.018 28.898L97.8598 29.8953L98.4914 31.0256H98.2255L96.5965 29.6626L95.8319 29.4964Z" stroke="white" stroke-width="0.0664878"/>
<path d="M94.4357 24.5763C94.1315 25.1889 94.0548 25.5666 94.0035 26.2718L94.6351 26.6374L95.6989 28.1999C95.6989 27.4021 95.491 27.0181 95.3 26.2718L95.6989 24.5763H94.4357Z" stroke="white" stroke-width="0.0664878"/>
<path d="M97.3611 27.7345L96.796 24.5763C96.3736 24.5212 96.1512 24.5986 95.8319 25.3077C95.7452 26.0826 95.8657 26.5471 96.2308 27.4021V28.0669C96.8097 28.3088 97.0732 28.1056 97.3611 27.7345Z" stroke="white" stroke-width="0.0664878"/>
<path d="M97.7268 27.0031L97.3611 24.5763C97.9755 23.6547 98.9569 24.4101 99.4222 25.208L99.5553 25.7066L99.0898 25.208L98.6244 25.3077C98.7632 26.3546 98.734 26.5848 98.6244 26.8037C98.3545 27.0745 98.1867 27.1864 97.7268 27.0031Z" stroke="white" stroke-width="0.0664878"/>
<path d="M99.0898 27.0031L98.4914 27.6015H97.8598L97.7268 28.1999L95.9981 28.4991C95.944 28.6514 95.9848 28.7706 96.2308 29.0642L96.796 29.2637C97.5247 29.4368 97.809 29.4076 98.2255 29.2637L102.281 28.0669C101.999 27.1918 101.85 26.5729 101.417 26.172L99.0898 27.0031Z" stroke="white" stroke-width="0.0664878"/>
<path d="M97.0287 34.6825L96.929 32.987H100.553V34.1173L97.0287 34.6825Z" stroke="white" stroke-width="0.0664878"/>
<path d="M96.5965 35.2144L96.3306 33.386L96.2308 35.2144H96.5965Z" stroke="white" stroke-width="0.0664878"/>
<path d="M100.553 34.8819V34.5495L97.0287 35.3473C98.4015 35.3581 99.172 35.277 100.553 34.8819Z" stroke="white" stroke-width="0.0664878"/>
<path d="M96.3306 35.8128L100.453 35.3473L100.021 44.157L99.1563 47.9468C98.8904 48.2127 99.4223 52.1023 95.433 51.3709C93.0112 51.1352 91.6519 50.9962 89.0502 50.0411L88.3188 47.5478C88.7772 45.2907 89.2357 44.2336 90.3799 42.6942C91.4724 43.3244 91.9618 43.6966 92.574 44.3897L94.6019 46.5173L92.9729 43.8578L95.9316 38.1066L96.6963 39.2701L96.3306 35.8128Z" stroke="white" stroke-width="0.0664878"/>
<path d="M88.0196 46.0519L89.5488 42.6942L87.122 43.2594L88.0196 46.0519Z" stroke="white" stroke-width="0.0664878"/>
<path d="M86.1247 43.2594C83.0416 43.8938 81.7314 43.9225 79.5424 43.8578L79.0903 46.1483C79.0625 46.2892 78.9475 46.3962 78.805 46.4139L75.5532 46.8165C74.9456 46.6934 74.57 46.6897 73.8245 46.8165L74.9215 51.5371C76.6043 48.3276 76.9097 47.9084 76.9826 48.1795L75.1542 52.5344L74.9725 57.3216C76.6585 55.2164 77.4148 52.0358 78.0464 50.972C77.0045 54.0721 76.9525 56.0521 74.5891 58.5516C72.8444 61.3009 72.395 62.8068 73.0266 65.9982L83.1328 65.8652C84.1155 65.9487 84.5275 65.4557 84.8282 64.602C85.5345 61.9452 85.8037 60.7198 85.8587 58.5516C86.0609 60.4195 86.5348 60.9156 84.8282 65.699H90.6459L91.0448 64.602L90.4797 63.5714C89.7816 56.7564 88.2023 49.4094 86.1247 43.2594Z" stroke="white" stroke-width="0.0664878"/>
<path d="M87.3548 52.0284C87.2884 56.1825 87.3178 58.373 86.8228 62.201C87.8534 60.5388 88.1858 54.4552 87.3548 52.0284Z" stroke="white" stroke-width="0.0664878"/>
<path d="M42.2315 94.7942H33.4306V92.0931C33.4306 90.8327 33.3181 90.0298 33.093 89.6847C32.8679 89.3396 32.4927 89.167 31.9675 89.167C31.3973 89.167 30.9621 89.3996 30.662 89.8648C30.3769 90.33 30.2344 91.0352 30.2344 91.9806C30.2344 93.1961 30.3994 94.1114 30.7296 94.7267C31.0447 95.3419 31.9375 96.0847 33.4081 96.955C37.6247 99.461 40.2808 101.517 41.3762 103.122C42.4716 104.728 43.0193 107.317 43.0193 110.888C43.0193 113.484 42.7117 115.397 42.0965 116.628C41.4962 117.858 40.3258 118.894 38.5851 119.734C36.8444 120.559 34.8186 120.972 32.5077 120.972C29.9718 120.972 27.8034 120.492 26.0027 119.531C24.217 118.571 23.0466 117.348 22.4914 115.862C21.9361 114.377 21.6585 112.268 21.6585 109.537V107.151H30.4595V111.586C30.4595 112.951 30.5795 113.829 30.8196 114.219C31.0747 114.609 31.5174 114.804 32.1476 114.804C32.7779 114.804 33.243 114.557 33.5432 114.062C33.8583 113.566 34.0158 112.831 34.0158 111.856C34.0158 109.71 33.7232 108.307 33.138 107.647C32.5378 106.986 31.0597 105.883 28.7038 104.338C26.3479 102.777 24.7873 101.644 24.022 100.939C23.2567 100.234 22.6189 99.2584 22.1087 98.0129C21.6135 96.7675 21.3659 95.1768 21.3659 93.2411C21.3659 90.45 21.7186 88.4092 22.4238 87.1187C23.1441 85.8282 24.2996 84.8228 25.8902 84.1025C27.4808 83.3673 29.4015 82.9996 31.6524 82.9996C34.1134 82.9996 36.2067 83.3973 37.9324 84.1926C39.673 84.9879 40.821 85.9933 41.3762 87.2087C41.9464 88.4092 42.2315 90.4575 42.2315 93.3536V94.7942ZM46.013 83.7649H55.5567C58.1377 83.7649 60.1185 83.9675 61.499 84.3726C62.8945 84.7778 63.9374 85.363 64.6277 86.1283C65.333 86.8936 65.8057 87.824 66.0458 88.9194C66.3009 89.9998 66.4284 91.6805 66.4284 93.9614V97.1351C66.4284 99.461 66.1883 101.157 65.7081 102.222C65.2279 103.287 64.3426 104.105 63.0521 104.676C61.7766 105.246 60.1035 105.531 58.0326 105.531H55.4892V120.207H46.013V83.7649ZM55.4892 89.9998V99.2734C55.7593 99.2884 55.9919 99.2959 56.1869 99.2959C57.0573 99.2959 57.6575 99.0859 57.9876 98.6657C58.3328 98.2305 58.5053 97.3377 58.5053 95.9872V92.9935C58.5053 91.748 58.3103 90.9377 57.9201 90.5625C57.53 90.1874 56.7196 89.9998 55.4892 89.9998Z" fill="white"/>
<path d="M131.877 83.7649V91.0577H126.25V120.207H116.773V91.0577H111.169V83.7649H131.877ZM153.125 83.7649V91.0577H147.498V120.207H138.022V91.0577H132.417V83.7649H153.125ZM155.286 83.7649H171.087V91.0577H164.762V97.9679H170.682V104.901H164.762V112.914H171.717V120.207H155.286V83.7649ZM174.463 83.7649H181.171C185.643 83.7649 188.666 83.9375 190.242 84.2826C191.833 84.6277 193.123 85.5131 194.113 86.9386C195.119 88.3492 195.622 90.6076 195.622 93.7138C195.622 96.5499 195.269 98.4556 194.564 99.431C193.858 100.406 192.47 100.992 190.4 101.187C192.275 101.652 193.536 102.275 194.181 103.055C194.826 103.835 195.224 104.555 195.374 105.216C195.539 105.861 195.622 107.654 195.622 110.595V120.207H186.821V108.097C186.821 106.146 186.663 104.938 186.348 104.473C186.048 104.008 185.245 103.775 183.94 103.775V120.207H174.463V83.7649ZM183.94 89.9998V98.103C185.005 98.103 185.748 97.9604 186.168 97.6753C186.603 97.3752 186.821 96.4223 186.821 94.8167V92.8134C186.821 91.658 186.611 90.9002 186.19 90.54C185.785 90.1799 185.035 89.9998 183.94 89.9998Z" fill="white"/>
<circle cx="90.2934" cy="103.848" r="20.0576" stroke="#3C8563" stroke-width="1.0953"/>
<path d="M101.035 95.0225C97.8964 91.1305 96.9219 90.1505 95.165 88.9407V85.1586C96.8521 84.9296 97.3855 85.2327 98.4328 85.6729C102.663 87.1879 104.303 89.092 107.056 92.9045C107.379 94.2224 107.514 94.9601 107.328 96.263C105.462 95.2678 104 95.0225 101.035 95.0225Z" fill="#3C8563"/>
<path d="M94.106 89.0618C90.6453 89.9496 89.3995 90.6224 86.935 92.2085C83.1528 90.1813 79.8865 91.1189 79.4917 90.5746C79.626 89.0057 80.1271 88.154 80.3389 86.5504C82.5956 85.0661 83.8092 84.8785 86.0878 84.3719C89.097 83.9075 93.3495 83.3431 94.5598 85.1586C94.8926 86.6109 95.165 88.2448 94.106 89.0618Z" fill="#3C8563"/>
<path d="M87.8427 100.59C87.3283 97.8061 86.9293 95.9439 86.935 92.9045C85.6339 91.6122 82.5089 91.0839 79.4917 91.21C77.2224 92.4808 76.0094 94.1416 73.7428 97.7456C73.9053 101.37 74.1421 103.228 75.1951 105.794L81.5794 107.428L87.8427 100.59Z" fill="#3C8563"/>
<path d="M96.8594 102.405L88.5084 101.134C86.5719 102.193 83.9697 105.098 82.2753 107.761L84.7867 115.386C88.1721 116.727 90.118 117.127 93.6521 117.352C96.7326 114.706 98.0195 113.353 99.6128 111.15C99.595 107.86 98.7203 105.708 96.8594 102.405Z" fill="#3C8563"/>
<path d="M100.884 95.9604C99.9334 98.5496 99.0198 99.9617 97.4645 102.405C99.1892 105.401 99.7336 107.687 100.399 111.15L106.027 111.603C108.176 109.092 109.029 107.688 109.749 104.342C109.33 101.086 108.902 99.0467 106.844 96.5353C104.636 95.0225 102.427 95.0462 100.884 95.9604Z" fill="#3C8563"/>
<path d="M106.36 111.997C108.194 109.866 108.899 108.174 110.203 105.219C109.961 110.03 108.382 113.31 104.908 117.473C105.636 115.304 106.146 113.993 106.36 111.997Z" fill="#3C8563"/>
<path d="M90.0817 123.797C93.4963 123.348 96.3753 122.484 96.466 121.588C95.6579 120.848 95.3524 120.413 94.9229 119.622C94.4657 118.999 94.2158 118.647 93.6521 118.079C93.2592 117.954 91.05 117.702 88.8412 117.171C87.2986 116.8 85.7236 116.133 84.4539 115.84C82.9113 117.035 81.8911 117.651 79.9758 118.714C81.0638 120.405 81.9336 121.262 83.7277 122.708C86.1363 123.505 87.5207 123.781 90.0817 123.797Z" fill="#3C8563"/>
<path d="M75.4372 117.171C77.855 119.521 79.4978 120.64 81.882 121.891C80.0925 119.739 78.6736 118.122 77.081 116.384C75.5885 115.174 74.832 114.054 73.531 112.451C73.3108 112.057 72.7155 111.879 71.9878 111.846C73.0646 113.869 73.7389 115.018 75.4372 117.171Z" fill="#3C8563"/>
<path d="M73.2889 111.361C73.902 109.171 74.0151 108.245 74.59 106.127C73.7428 103.01 73.4505 101.037 73.2889 97.7456C72.6319 97.2829 72.3027 96.9168 71.3827 97.1707C70.7243 100.104 70.4741 101.696 70.475 104.342C70.5257 107.12 70.735 108.557 71.776 110.726C72.2226 111.189 72.4492 111.709 73.2889 111.361Z" fill="#3C8563"/>
<path d="M95.1347 123.162C98.0999 121.498 99.8466 120.819 102.608 119.561C101.524 120.414 100.68 120.935 99.0379 121.891C97.2242 122.684 96.4892 122.84 95.1347 123.162Z" fill="#3C8563"/>
</svg>
